<svg xmlns="http://www.w3.org/2000/svg" xmlns:xlink="http://www.w3.org/1999/xlink" contentStyleType="text/css" data-diagram-type="DESCRIPTION" height="1631px" preserveAspectRatio="none" style="width:1761px;height:1631px;background:#FFFFFF;" version="1.1" viewBox="0 0 1761 1631" width="1761px" zoomAndPan="magnify"><title>&#1044;&#1080;&#1072;&#1075;&#1088;&#1072;&#1084;&#1084;&#1072; &#1087;&#1088;&#1077;&#1094;&#1077;&#1076;&#1077;&#1085;&#1090;&#1086;&#1074; &#1089;&#1080;&#1089;&#1090;&#1077;&#1084;&#1099; "&#1055;&#1083;&#1072;&#1090;&#1092;&#1086;&#1088;&#1084;&#1072; &#1076;&#1083;&#1103; &#1088;&#1072;&#1079;&#1084;&#1077;&#1097;&#1077;&#1085;&#1080;&#1103; &#1086;&#1085;&#1083;&#1072;&#1081;&#1085; &#1080;&#1085;&#1076;&#1080; &#1080;&#1075;&#1088;"</title><defs/><g><g class="title" data-source-line="1"><text fill="#000000" font-family="sans-serif" font-size="14" font-weight="bold" lengthAdjust="spacing" textLength="671.3779" x="538.0343" y="22.9951">&#1044;&#1080;&#1072;&#1075;&#1088;&#1072;&#1084;&#1084;&#1072; &#1087;&#1088;&#1077;&#1094;&#1077;&#1076;&#1077;&#1085;&#1090;&#1086;&#1074; &#1089;&#1080;&#1089;&#1090;&#1077;&#1084;&#1099; "&#1055;&#1083;&#1072;&#1090;&#1092;&#1086;&#1088;&#1084;&#1072; &#1076;&#1083;&#1103; &#1088;&#1072;&#1079;&#1084;&#1077;&#1097;&#1077;&#1085;&#1080;&#1103; &#1086;&#1085;&#1083;&#1072;&#1081;&#1085; &#1080;&#1085;&#1076;&#1080; &#1080;&#1075;&#1088;"</text></g><!--entity Guest--><g class="entity" data-entity="Guest" data-source-line="6" data-uid="ent0002" id="entity_Guest"><ellipse cx="26.6035" cy="1419.2969" fill="#F1F1F1" rx="8" ry="8" style="stroke:#181818;stroke-width:0.5;"/><path d="M26.6035,1427.2969 L26.6035,1454.2969 M13.6035,1435.2969 L39.6035,1435.2969 M26.6035,1454.2969 L13.6035,1469.2969 M26.6035,1454.2969 L39.6035,1469.2969" fill="none" style="stroke:#181818;stroke-width:0.5;"/><text fill="#000000" font-family="sans-serif" font-size="14" lengthAdjust="spacing" textLength="41.207" x="6" y="1483.792">&#1043;&#1086;&#1089;&#1090;&#1100;</text></g><!--entity User--><g class="entity" data-entity="User" data-source-line="7" data-uid="ent0003" id="entity_User"><ellipse cx="197.5498" cy="1076.2969" fill="#F1F1F1" rx="8" ry="8" style="stroke:#181818;stroke-width:0.5;"/><path d="M197.5498,1084.2969 L197.5498,1111.2969 M184.5498,1092.2969 L210.5498,1092.2969 M197.5498,1111.2969 L184.5498,1126.2969 M197.5498,1111.2969 L210.5498,1126.2969" fill="none" style="stroke:#181818;stroke-width:0.5;"/><text fill="#000000" font-family="sans-serif" font-size="14" lengthAdjust="spacing" textLength="103.0996" x="146" y="1140.792">&#1055;&#1086;&#1083;&#1100;&#1079;&#1086;&#1074;&#1072;&#1090;&#1077;&#1083;&#1100;</text></g><!--entity Dev--><g class="entity" data-entity="Dev" data-source-line="8" data-uid="ent0004" id="entity_Dev"><ellipse cx="597.0562" cy="282.2969" fill="#F1F1F1" rx="8" ry="8" style="stroke:#181818;stroke-width:0.5;"/><path d="M597.0562,290.2969 L597.0562,317.2969 M584.0562,298.2969 L610.0562,298.2969 M597.0562,317.2969 L584.0562,332.2969 M597.0562,317.2969 L610.0562,332.2969" fill="none" style="stroke:#181818;stroke-width:0.5;"/><text fill="#000000" font-family="sans-serif" font-size="14" lengthAdjust="spacing" textLength="93.1123" x="550.5" y="346.792">&#1056;&#1072;&#1079;&#1088;&#1072;&#1073;&#1086;&#1090;&#1095;&#1080;&#1082;</text></g><!--entity Mod--><g class="entity" data-entity="Mod" data-source-line="9" data-uid="ent0005" id="entity_Mod"><ellipse cx="597.0054" cy="663.2969" fill="#F1F1F1" rx="8" ry="8" style="stroke:#181818;stroke-width:0.5;"/><path d="M597.0054,671.2969 L597.0054,698.2969 M584.0054,679.2969 L610.0054,679.2969 M597.0054,698.2969 L584.0054,713.2969 M597.0054,698.2969 L610.0054,713.2969" fill="none" style="stroke:#181818;stroke-width:0.5;"/><text fill="#000000" font-family="sans-serif" font-size="14" lengthAdjust="spacing" textLength="82.0107" x="556" y="727.792">&#1052;&#1086;&#1076;&#1077;&#1088;&#1072;&#1090;&#1086;&#1088;</text></g><!--entity Admin--><g class="entity" data-entity="Admin" data-source-line="10" data-uid="ent0006" id="entity_Admin"><ellipse cx="981.5474" cy="543.2969" fill="#F1F1F1" rx="8" ry="8" style="stroke:#181818;stroke-width:0.5;"/><path d="M981.5474,551.2969 L981.5474,578.2969 M968.5474,559.2969 L994.5474,559.2969 M981.5474,578.2969 L968.5474,593.2969 M981.5474,578.2969 L994.5474,593.2969" fill="none" style="stroke:#181818;stroke-width:0.5;"/><text fill="#000000" font-family="sans-serif" font-size="14" lengthAdjust="spacing" textLength="116.0947" x="923.5" y="607.792">&#1040;&#1076;&#1084;&#1080;&#1085;&#1080;&#1089;&#1090;&#1088;&#1072;&#1090;&#1086;&#1088;</text></g><!--entity UC_Select--><g class="entity" data-entity="UC_Select" data-source-line="18" data-uid="ent0011" id="entity_UC_Select"><ellipse cx="197.4794" cy="1396.7928" fill="#F1F1F1" rx="67.9794" ry="15.9959" style="stroke:#181818;stroke-width:0.5;"/><text fill="#000000" font-family="sans-serif" font-size="14" lengthAdjust="spacing" textLength="101.2402" x="146.8593" y="1401.4412">&#1042;&#1099;&#1073;&#1088;&#1072;&#1090;&#1100; &#1080;&#1075;&#1088;&#1091;</text></g><!--entity UC_Play--><g class="entity" data-entity="UC_Play" data-source-line="19" data-uid="ent0012" id="entity_UC_Play"><ellipse cx="597.2374" cy="1598.8444" fill="#F1F1F1" rx="73.2374" ry="17.0475" style="stroke:#181818;stroke-width:0.5;"/><text fill="#000000" font-family="sans-serif" font-size="14" lengthAdjust="spacing" textLength="114.4268" x="540.0241" y="1603.4928">&#1047;&#1072;&#1087;&#1091;&#1089;&#1090;&#1080;&#1090;&#1100; &#1080;&#1075;&#1088;&#1091;</text></g><!--entity UC_Register--><g class="entity" data-entity="UC_Register" data-source-line="20" data-uid="ent0013" id="entity_UC_Register"><ellipse cx="197.2998" cy="1468.5568" fill="#F1F1F1" rx="89.2998" ry="20.26" style="stroke:#181818;stroke-width:0.5;"/><text fill="#000000" font-family="sans-serif" font-size="14" lengthAdjust="spacing" textLength="152.1543" x="121.2227" y="1473.2053">&#1047;&#1072;&#1088;&#1077;&#1075;&#1080;&#1089;&#1090;&#1088;&#1080;&#1088;&#1086;&#1074;&#1072;&#1090;&#1100;&#1089;&#1103;</text></g><!--entity UC_Login--><g class="entity" data-entity="UC_Login" data-source-line="21" data-uid="ent0014" id="entity_UC_Login"><ellipse cx="197.4821" cy="1538.8205" fill="#F1F1F1" rx="34.4821" ry="14.5236" style="stroke:#181818;stroke-width:0.5;"/><text fill="#000000" font-family="sans-serif" font-size="14" lengthAdjust="spacing" textLength="44.5225" x="175.2209" y="1543.4689">&#1042;&#1086;&#1081;&#1090;&#1080;</text></g><!--entity UC_EditProfile--><g class="entity" data-entity="UC_EditProfile" data-source-line="31" data-uid="ent0019" id="entity_UC_EditProfile"><ellipse cx="596.7645" cy="788.6498" fill="#F1F1F1" rx="102.2645" ry="22.8529" style="stroke:#181818;stroke-width:0.5;"/><text fill="#000000" font-family="sans-serif" font-size="14" lengthAdjust="spacing" textLength="181.0361" x="506.2465" y="793.2982">&#1056;&#1077;&#1076;&#1072;&#1082;&#1090;&#1080;&#1088;&#1086;&#1074;&#1072;&#1090;&#1100; &#1087;&#1088;&#1086;&#1092;&#1080;&#1083;&#1100;</text></g><!--entity UC_CreateCollection--><g class="entity" data-entity="UC_CreateCollection" data-source-line="32" data-uid="ent0020" id="entity_UC_CreateCollection"><ellipse cx="597.1683" cy="866.6305" fill="#F1F1F1" rx="87.1683" ry="19.8337" style="stroke:#181818;stroke-width:0.5;"/><text fill="#000000" font-family="sans-serif" font-size="14" lengthAdjust="spacing" textLength="147.3008" x="523.5179" y="871.279">&#1057;&#1086;&#1079;&#1076;&#1072;&#1090;&#1100; &#1082;&#1086;&#1083;&#1083;&#1077;&#1082;&#1094;&#1080;&#1102;</text></g><!--entity UC_DeleteCollection--><g class="entity" data-entity="UC_DeleteCollection" data-source-line="33" data-uid="ent0021" id="entity_UC_DeleteCollection"><ellipse cx="597.0155" cy="941.7" fill="#F1F1F1" rx="87.5155" ry="19.9031" style="stroke:#181818;stroke-width:0.5;"/><text fill="#000000" font-family="sans-serif" font-size="14" lengthAdjust="spacing" textLength="148.0938" x="522.9686" y="946.3484">&#1059;&#1076;&#1072;&#1083;&#1080;&#1090;&#1100; &#1082;&#1086;&#1083;&#1083;&#1077;&#1082;&#1094;&#1080;&#1102;</text></g><!--entity UC_EditCollection--><g class="entity" data-entity="UC_EditCollection" data-source-line="34" data-uid="ent0022" id="entity_UC_EditCollection"><ellipse cx="596.8163" cy="1021.7601" fill="#F1F1F1" rx="110.3163" ry="24.4633" style="stroke:#181818;stroke-width:0.5;"/><text fill="#000000" font-family="sans-serif" font-size="14" lengthAdjust="spacing" textLength="198.5635" x="497.5346" y="1026.4086">&#1056;&#1077;&#1076;&#1072;&#1082;&#1090;&#1080;&#1088;&#1086;&#1074;&#1072;&#1090;&#1100; &#1082;&#1086;&#1083;&#1083;&#1077;&#1082;&#1094;&#1080;&#1102;</text></g><!--entity UC_ViewOwnReviews--><g class="entity" data-entity="UC_ViewOwnReviews" data-source-line="35" data-uid="ent0023" id="entity_UC_ViewOwnReviews"><ellipse cx="597.1635" cy="1105.8296" fill="#F1F1F1" rx="108.1635" ry="24.0327" style="stroke:#181818;stroke-width:0.5;"/><text fill="#000000" font-family="sans-serif" font-size="14" lengthAdjust="spacing" textLength="193.9014" x="500.2128" y="1110.478">&#1055;&#1088;&#1086;&#1089;&#1084;&#1086;&#1090;&#1088;&#1077;&#1090;&#1100; &#1089;&#1074;&#1086;&#1080; &#1086;&#1090;&#1079;&#1099;&#1074;&#1099;</text></g><!--entity UC_ApplyDev--><g class="entity" data-entity="UC_ApplyDev" data-source-line="36" data-uid="ent0024" id="entity_UC_ApplyDev"><ellipse cx="596.8497" cy="1203.8668" fill="#F1F1F1" rx="180.8497" ry="38.5699" style="stroke:#181818;stroke-width:0.5;"/><text fill="#000000" font-family="sans-serif" font-size="14" lengthAdjust="spacing" textLength="346.2402" x="423.7295" y="1208.5152">&#1055;&#1086;&#1076;&#1072;&#1090;&#1100; &#1079;&#1072;&#1103;&#1074;&#1082;&#1091; &#1085;&#1072; &#1089;&#1090;&#1072;&#1085;&#1086;&#1074;&#1083;&#1077;&#1085;&#1080;&#1077; &#1088;&#1072;&#1079;&#1088;&#1072;&#1073;&#1086;&#1090;&#1095;&#1080;&#1082;&#1086;&#1084;</text></g><!--entity UC_Review--><g class="entity" data-entity="UC_Review" data-source-line="37" data-uid="ent0025" id="entity_UC_Review"><ellipse cx="596.8415" cy="1294.5652" fill="#F1F1F1" rx="74.3415" ry="17.2683" style="stroke:#181818;stroke-width:0.5;"/><text fill="#000000" font-family="sans-serif" font-size="14" lengthAdjust="spacing" textLength="117.127" x="538.278" y="1299.2136">&#1054;&#1089;&#1090;&#1072;&#1074;&#1080;&#1090;&#1100; &#1086;&#1090;&#1079;&#1099;&#1074;</text></g><!--entity UC_Report--><g class="entity" data-entity="UC_Report" data-source-line="38" data-uid="ent0026" id="entity_UC_Report"><ellipse cx="597.044" cy="1369.8057" fill="#F1F1F1" rx="100.544" ry="22.5088" style="stroke:#181818;stroke-width:0.5;"/><text fill="#000000" font-family="sans-serif" font-size="14" lengthAdjust="spacing" textLength="177.2559" x="508.4161" y="1374.4541">&#1055;&#1086;&#1078;&#1072;&#1083;&#1086;&#1074;&#1072;&#1090;&#1100;&#1089;&#1103; &#1085;&#1072; &#1086;&#1090;&#1079;&#1099;&#1074;</text></g><!--entity UC_GetNotified--><g class="entity" data-entity="UC_GetNotified" data-source-line="39" data-uid="ent0027" id="entity_UC_GetNotified"><ellipse cx="597.0856" cy="1449.914" fill="#F1F1F1" rx="98.5856" ry="22.1171" style="stroke:#181818;stroke-width:0.5;"/><text fill="#000000" font-family="sans-serif" font-size="14" lengthAdjust="spacing" textLength="172.9355" x="510.6178" y="1454.5624">&#1055;&#1086;&#1083;&#1091;&#1095;&#1080;&#1090;&#1100; &#1091;&#1074;&#1077;&#1076;&#1086;&#1084;&#1083;&#1077;&#1085;&#1080;&#1077;</text></g><!--entity UC_Logout--><g class="entity" data-entity="UC_Logout" data-source-line="40" data-uid="ent0028" id="entity_UC_Logout"><ellipse cx="596.7949" cy="1526.5558" fill="#F1F1F1" rx="84.2949" ry="19.259" style="stroke:#181818;stroke-width:0.5;"/><text fill="#000000" font-family="sans-serif" font-size="14" lengthAdjust="spacing" textLength="140.6973" x="526.4462" y="1531.2043">&#1042;&#1099;&#1081;&#1090;&#1080; &#1080;&#1079; &#1072;&#1082;&#1082;&#1072;&#1091;&#1085;&#1090;&#1072;</text></g><!--entity UC_PublishGame--><g class="entity" data-entity="UC_PublishGame" data-source-line="55" data-uid="ent0039" id="entity_UC_PublishGame"><ellipse cx="981.4986" cy="62.7966" fill="#F1F1F1" rx="85.4986" ry="19.4997" style="stroke:#181818;stroke-width:0.5;"/><text fill="#000000" font-family="sans-serif" font-size="14" lengthAdjust="spacing" textLength="143.4727" x="909.7623" y="67.445">&#1054;&#1087;&#1091;&#1073;&#1083;&#1080;&#1082;&#1086;&#1074;&#1072;&#1090;&#1100; &#1080;&#1075;&#1088;&#1091;</text></g><!--entity UC_ViewPublishedGames--><g class="entity" data-entity="UC_ViewPublishedGames" data-source-line="56" data-uid="ent0040" id="entity_UC_ViewPublishedGames"><ellipse cx="981.4207" cy="148.681" fill="#F1F1F1" rx="142.4207" ry="30.8841" style="stroke:#181818;stroke-width:0.5;"/><text fill="#000000" font-family="sans-serif" font-size="14" lengthAdjust="spacing" textLength="266.6699" x="848.0858" y="153.3295">&#1055;&#1088;&#1086;&#1089;&#1084;&#1086;&#1090;&#1088;&#1077;&#1090;&#1100; &#1086;&#1087;&#1091;&#1073;&#1083;&#1080;&#1082;&#1086;&#1074;&#1072;&#1085;&#1085;&#1099;&#1077; &#1080;&#1075;&#1088;&#1099;</text></g><!--entity UC_EditGame--><g class="entity" data-entity="UC_EditGame" data-source-line="57" data-uid="ent0041" id="entity_UC_EditGame"><ellipse cx="981.2591" cy="234.8487" fill="#F1F1F1" rx="88.2591" ry="20.0518" style="stroke:#181818;stroke-width:0.5;"/><text fill="#000000" font-family="sans-serif" font-size="14" lengthAdjust="spacing" textLength="149.7891" x="906.3646" y="239.4971">&#1056;&#1077;&#1076;&#1072;&#1082;&#1090;&#1080;&#1088;&#1086;&#1074;&#1072;&#1090;&#1100; &#1080;&#1075;&#1088;&#1091;</text></g><!--entity UC_AddGameVersion--><g class="entity" data-entity="UC_AddGameVersion" data-source-line="58" data-uid="ent0042" id="entity_UC_AddGameVersion"><ellipse cx="981.3044" cy="311.6577" fill="#F1F1F1" rx="97.3044" ry="21.8609" style="stroke:#181818;stroke-width:0.5;"/><text fill="#000000" font-family="sans-serif" font-size="14" lengthAdjust="spacing" textLength="170.0986" x="896.255" y="316.3062">&#1044;&#1086;&#1073;&#1072;&#1074;&#1080;&#1090;&#1100; &#1074;&#1077;&#1088;&#1089;&#1080;&#1102; &#1080;&#1075;&#1088;&#1099;</text></g><!--entity UC_DeleteGameVersion--><g class="entity" data-entity="UC_DeleteGameVersion" data-source-line="59" data-uid="ent0043" id="entity_UC_DeleteGameVersion"><ellipse cx="981.665" cy="389.8299" fill="#F1F1F1" rx="93.165" ry="21.033" style="stroke:#181818;stroke-width:0.5;"/><text fill="#000000" font-family="sans-serif" font-size="14" lengthAdjust="spacing" textLength="160.8701" x="901.2299" y="394.4783">&#1059;&#1076;&#1072;&#1083;&#1080;&#1090;&#1100; &#1074;&#1077;&#1088;&#1089;&#1080;&#1102; &#1080;&#1075;&#1088;&#1099;</text></g><!--entity UC_ViewStats--><g class="entity" data-entity="UC_ViewStats" data-source-line="60" data-uid="ent0044" id="entity_UC_ViewStats"><ellipse cx="981.4032" cy="472.7775" fill="#F1F1F1" rx="122.9032" ry="26.9806" style="stroke:#181818;stroke-width:0.5;"/><text fill="#000000" font-family="sans-serif" font-size="14" lengthAdjust="spacing" textLength="225.5381" x="868.6342" y="477.426">&#1055;&#1088;&#1086;&#1089;&#1084;&#1086;&#1090;&#1088;&#1077;&#1090;&#1100; &#1089;&#1090;&#1072;&#1090;&#1080;&#1089;&#1090;&#1080;&#1082;&#1091; &#1080;&#1075;&#1088;&#1099;</text></g><!--entity UC_ManageUsers--><g class="entity" data-entity="UC_ManageUsers" data-source-line="71" data-uid="ent0051" id="entity_UC_ManageUsers"><ellipse cx="981.4574" cy="764.6884" fill="#F1F1F1" rx="112.4574" ry="24.8915" style="stroke:#181818;stroke-width:0.5;"/><text fill="#000000" font-family="sans-serif" font-size="14" lengthAdjust="spacing" textLength="203.1846" x="879.8651" y="769.3368">&#1059;&#1087;&#1088;&#1072;&#1074;&#1083;&#1103;&#1090;&#1100; &#1087;&#1086;&#1083;&#1100;&#1079;&#1086;&#1074;&#1072;&#1090;&#1077;&#1083;&#1103;&#1084;&#1080;</text></g><!--entity UC_BlockUser--><g class="entity" data-entity="UC_BlockUser" data-source-line="72" data-uid="ent0052" id="entity_UC_BlockUser"><ellipse cx="1597.5023" cy="699.5973" fill="#F1F1F1" rx="119.5023" ry="26.3005" style="stroke:#181818;stroke-width:0.5;"/><text fill="#000000" font-family="sans-serif" font-size="14" lengthAdjust="spacing" textLength="218.292" x="1488.3563" y="704.2458">&#1047;&#1072;&#1073;&#1083;&#1086;&#1082;&#1080;&#1088;&#1086;&#1074;&#1072;&#1090;&#1100; &#1087;&#1086;&#1083;&#1100;&#1079;&#1086;&#1074;&#1072;&#1090;&#1077;&#1083;&#1103;</text></g><!--entity UC_UnblockUser--><g class="entity" data-entity="UC_UnblockUser" data-source-line="73" data-uid="ent0053" id="entity_UC_UnblockUser"><ellipse cx="1597.7457" cy="788.746" fill="#F1F1F1" rx="122.7457" ry="26.9491" style="stroke:#181818;stroke-width:0.5;"/><text fill="#000000" font-family="sans-serif" font-size="14" lengthAdjust="spacing" textLength="225.2031" x="1485.1442" y="793.3945">&#1056;&#1072;&#1079;&#1073;&#1083;&#1086;&#1082;&#1080;&#1088;&#1086;&#1074;&#1072;&#1090;&#1100; &#1087;&#1086;&#1083;&#1100;&#1079;&#1086;&#1074;&#1072;&#1090;&#1077;&#1083;&#1103;</text></g><!--entity UC_WarnUser--><g class="entity" data-entity="UC_WarnUser" data-source-line="74" data-uid="ent0054" id="entity_UC_WarnUser"><ellipse cx="1597.7232" cy="884.7415" fill="#F1F1F1" rx="157.7232" ry="33.9446" style="stroke:#181818;stroke-width:0.5;"/><text fill="#000000" font-family="sans-serif" font-size="14" lengthAdjust="spacing" textLength="298.5254" x="1448.4605" y="889.39">&#1042;&#1099;&#1076;&#1072;&#1090;&#1100; &#1087;&#1088;&#1077;&#1076;&#1091;&#1087;&#1088;&#1077;&#1078;&#1076;&#1077;&#1085;&#1080;&#1077; &#1087;&#1086;&#1083;&#1100;&#1079;&#1086;&#1074;&#1072;&#1090;&#1077;&#1083;&#1102;</text></g><!--entity UC_Moderate--><g class="entity" data-entity="UC_Moderate" data-source-line="75" data-uid="ent0055" id="entity_UC_Moderate"><ellipse cx="981.3043" cy="972.8577" fill="#F1F1F1" rx="98.3043" ry="22.0609" style="stroke:#181818;stroke-width:0.5;"/><text fill="#000000" font-family="sans-serif" font-size="14" lengthAdjust="spacing" textLength="172.3135" x="895.1476" y="977.5062">&#1052;&#1086;&#1076;&#1077;&#1088;&#1080;&#1088;&#1086;&#1074;&#1072;&#1090;&#1100; &#1082;&#1086;&#1085;&#1090;&#1077;&#1085;&#1090;</text></g><!--entity UC_Approve--><g class="entity" data-entity="UC_Approve" data-source-line="76" data-uid="ent0056" id="entity_UC_Approve"><ellipse cx="1597.6972" cy="972.7363" fill="#F1F1F1" rx="82.6972" ry="18.9394" style="stroke:#181818;stroke-width:0.5;"/><text fill="#000000" font-family="sans-serif" font-size="14" lengthAdjust="spacing" textLength="136.9922" x="1529.2011" y="977.3847">&#1054;&#1076;&#1086;&#1073;&#1088;&#1080;&#1090;&#1100; &#1082;&#1086;&#1085;&#1090;&#1077;&#1085;&#1090;</text></g><!--entity UC_Reject--><g class="entity" data-entity="UC_Reject" data-source-line="77" data-uid="ent0057" id="entity_UC_Reject"><ellipse cx="1597.4478" cy="1079.8864" fill="#F1F1F1" rx="85.9478" ry="19.5896" style="stroke:#181818;stroke-width:0.5;"/><text fill="#000000" font-family="sans-serif" font-size="14" lengthAdjust="spacing" textLength="144.5049" x="1525.1954" y="1084.5349">&#1054;&#1090;&#1082;&#1083;&#1086;&#1085;&#1080;&#1090;&#1100; &#1082;&#1086;&#1085;&#1090;&#1077;&#1085;&#1090;</text></g><!--entity UC_ViewModerations--><g class="entity" data-entity="UC_ViewModerations" data-source-line="98" data-uid="ent0065" id="entity_UC_ViewModerations"><ellipse cx="1597.523" cy="346.6015" fill="#F1F1F1" rx="132.023" ry="28.8046" style="stroke:#181818;stroke-width:0.5;"/><text fill="#000000" font-family="sans-serif" font-size="14" lengthAdjust="spacing" textLength="244.8428" x="1475.1016" y="351.2499">&#1055;&#1088;&#1086;&#1089;&#1084;&#1086;&#1090;&#1088;&#1077;&#1090;&#1100; &#1078;&#1091;&#1088;&#1085;&#1072;&#1083; &#1084;&#1086;&#1076;&#1077;&#1088;&#1072;&#1094;&#1080;&#1081;</text></g><!--entity UC_GenerateStat--><g class="entity" data-entity="UC_GenerateStat" data-source-line="99" data-uid="ent0066" id="entity_UC_GenerateStat"><ellipse cx="1597.6267" cy="439.6222" fill="#F1F1F1" rx="132.1267" ry="28.8253" style="stroke:#181818;stroke-width:0.5;"/><text fill="#000000" font-family="sans-serif" font-size="14" lengthAdjust="spacing" textLength="245.0615" x="1475.096" y="444.2707">&#1057;&#1086;&#1089;&#1090;&#1072;&#1074;&#1080;&#1090;&#1100; &#1089;&#1090;&#1072;&#1090;&#1080;&#1089;&#1090;&#1080;&#1095;&#1077;&#1089;&#1082;&#1080;&#1081; &#1086;&#1090;&#1095;&#1105;&#1090;</text></g><!--entity UC_AlterUserRole--><g class="entity" data-entity="UC_AlterUserRole" data-source-line="100" data-uid="ent0067" id="entity_UC_AlterUserRole"><ellipse cx="1597.4901" cy="529.9949" fill="#F1F1F1" rx="118.9901" ry="26.198" style="stroke:#181818;stroke-width:0.5;"/><text fill="#000000" font-family="sans-serif" font-size="14" lengthAdjust="spacing" textLength="217.1982" x="1488.8909" y="534.6433">&#1048;&#1079;&#1084;&#1077;&#1085;&#1080;&#1090;&#1100; &#1088;&#1086;&#1083;&#1100; &#1087;&#1086;&#1083;&#1100;&#1079;&#1086;&#1074;&#1072;&#1090;&#1077;&#1083;&#1103;</text></g><!--entity UC_ManageMods--><g class="entity" data-entity="UC_ManageMods" data-source-line="101" data-uid="ent0068" id="entity_UC_ManageMods"><ellipse cx="1597.5335" cy="615.0036" fill="#F1F1F1" rx="106.5335" ry="23.7067" style="stroke:#181818;stroke-width:0.5;"/><text fill="#000000" font-family="sans-serif" font-size="14" lengthAdjust="spacing" textLength="190.3604" x="1502.3534" y="619.652">&#1059;&#1087;&#1088;&#1072;&#1074;&#1083;&#1103;&#1090;&#1100; &#1084;&#1086;&#1076;&#1077;&#1088;&#1072;&#1090;&#1086;&#1088;&#1072;&#1084;&#1080;</text></g><!--reverse link Guest to User--><g class="link" data-entity-1="Guest" data-entity-2="User" data-source-line="12" data-uid="lnk7" id="link_Guest_User"><path d="M54.1867,1394.6309 C86.6767,1328.7009 145.14,1210.0369 177.68,1143.9869" fill="none" id="Guest-backto-User" style="stroke:#181818;stroke-width:1;"/><polygon fill="none" points="46.23,1410.7769,59.5686,1397.2831,48.8047,1391.9787,46.23,1410.7769" style="stroke:#181818;stroke-width:1;"/></g><!--reverse link User to Dev--><g class="link" data-entity-1="User" data-entity-2="Dev" data-source-line="13" data-uid="lnk8" id="link_User_Dev"><path d="M215.2845,1050.2562 C234.2845,988.6462 269.61,881.6269 317,781.7969 C396.55,614.2069 517.31,428.4769 569.95,350.0569" fill="none" id="User-backto-Dev" style="stroke:#181818;stroke-width:1;"/><polygon fill="none" points="209.98,1067.4569,221.0181,1052.0244,209.551,1048.4881,209.98,1067.4569" style="stroke:#181818;stroke-width:1;"/></g><!--reverse link User to Mod--><g class="link" data-entity-1="User" data-entity-2="Mod" data-source-line="14" data-uid="lnk9" id="link_User_Mod"><path d="M214.1618,1050.554 C237.2118,974.674 295.04,822.5069 416,747.7969 C459.65,720.8369 517.46,706.2569 555.65,699.0169" fill="none" id="User-backto-Mod" style="stroke:#181818;stroke-width:1;"/><polygon fill="none" points="208.93,1067.7769,219.9028,1052.2979,208.4208,1048.81,208.93,1067.7769" style="stroke:#181818;stroke-width:1;"/></g><!--reverse link Mod to Admin--><g class="link" data-entity-1="Mod" data-entity-2="Admin" data-source-line="15" data-uid="lnk10" id="link_Mod_Admin"><path d="M655.3848,674.7894 C723.5748,653.3994 844.91,615.3369 923.22,590.7669" fill="none" id="Mod-backto-Admin" style="stroke:#181818;stroke-width:1;"/><polygon fill="none" points="638.21,680.1769,657.1807,680.5144,653.589,669.0645,638.21,680.1769" style="stroke:#181818;stroke-width:1;"/></g><!--reverse link UC_Select to UC_Play--><g class="link" data-entity-1="UC_Select" data-entity-2="UC_Play" data-source-line="23" data-uid="lnk15" id="link_UC_Select_UC_Play"><path d="M255.8092,1409.1934 C269.4992,1414.2434 277.47,1419.6669 287,1430.7969 C328.11,1478.7969 269.94,1527.6069 317,1569.7969 C378.19,1624.6569 479.94,1619.7869 542.19,1610.1069" fill="none" id="UC_Select-backto-UC_Play" style="stroke:#181818;stroke-width:1;stroke-dasharray:7,7;"/><polygon fill="#181818" points="250.18,1407.1169,257.2395,1413.9845,254.871,1408.8473,260.0082,1406.4788,250.18,1407.1169" style="stroke:#181818;stroke-width:1;"/><text fill="#000000" font-family="sans-serif" font-size="13" lengthAdjust="spacing" textLength="67.958" x="318" y="1565.8638">&#171;extends&#187;</text></g><!--link Guest to UC_Select--><g class="link" data-entity-1="Guest" data-entity-2="UC_Select" data-source-line="25" data-uid="lnk16" id="link_Guest_UC_Select"><path d="M47.22,1442.7269 C73.6,1434.6069 115.3057,1421.7824 149.6357,1411.2124" fill="none" id="Guest-to-UC_Select" style="stroke:#181818;stroke-width:1;"/><polygon fill="#181818" points="155.37,1409.4469,145.5914,1408.2723,150.5914,1410.9182,147.9455,1415.9181,155.37,1409.4469" style="stroke:#181818;stroke-width:1;"/></g><!--link Guest to UC_Register--><g class="link" data-entity-1="Guest" data-entity-2="UC_Register" data-source-line="26" data-uid="lnk17" id="link_Guest_UC_Register"><path d="M47.22,1451.1269 C64.72,1453.1969 85.5317,1455.6604 111.5917,1458.7504" fill="none" id="Guest-to-UC_Register" style="stroke:#181818;stroke-width:1;"/><polygon fill="#181818" points="117.55,1459.4569,109.0836,1454.425,112.5848,1458.8681,108.1416,1462.3693,117.55,1459.4569" style="stroke:#181818;stroke-width:1;"/></g><!--link Guest to UC_Login--><g class="link" data-entity-1="Guest" data-entity-2="UC_Login" data-source-line="27" data-uid="lnk18" id="link_Guest_UC_Login"><path d="M47.32,1465.4769 C63.02,1478.0769 85.91,1495.1369 108,1506.7969 C127.36,1517.0169 144.9733,1523.5167 162.8233,1529.0967" fill="none" id="Guest-to-UC_Login" style="stroke:#181818;stroke-width:1;"/><polygon fill="#181818" points="168.55,1530.8869,161.1534,1524.3838,163.7777,1529.395,158.7665,1532.0194,168.55,1530.8869" style="stroke:#181818;stroke-width:1;"/></g><!--link User to UC_EditProfile--><g class="link" data-entity-1="User" data-entity-2="UC_EditProfile" data-source-line="42" data-uid="lnk29" id="link_User_UC_EditProfile"><path d="M215.41,1067.5469 C245.49,1004.7869 314.77,881.6269 416,828.7969 C443.39,814.5069 469.8162,806.482 499.4562,800.562" fill="none" id="User-to-UC_EditProfile" style="stroke:#181818;stroke-width:1;"/><polygon fill="#181818" points="505.34,799.3869,495.7309,797.2271,500.4368,800.3662,497.2978,805.0722,505.34,799.3869" style="stroke:#181818;stroke-width:1;"/></g><!--link User to UC_CreateCollection--><g class="link" data-entity-1="User" data-entity-2="UC_CreateCollection" data-source-line="43" data-uid="lnk30" id="link_User_UC_CreateCollection"><path d="M227.2,1067.5369 C264.88,1020.4369 335.73,941.9969 416,903.7969 C447.26,888.9169 478.4297,880.9817 510.7997,875.6517" fill="none" id="User-to-UC_CreateCollection" style="stroke:#181818;stroke-width:1;"/><polygon fill="#181818" points="516.72,874.6769,507.1897,872.1923,511.7864,875.4892,508.4895,880.086,516.72,874.6769" style="stroke:#181818;stroke-width:1;"/></g><!--link User to UC_DeleteCollection--><g class="link" data-entity-1="User" data-entity-2="UC_DeleteCollection" data-source-line="44" data-uid="lnk31" id="link_User_UC_DeleteCollection"><path d="M249.34,1070.0869 C292,1041.6969 355.5,1003.0269 416,979.7969 C449.54,966.9169 482.4647,959.0787 515.4447,953.1487" fill="none" id="User-to-UC_DeleteCollection" style="stroke:#181818;stroke-width:1;"/><polygon fill="#181818" points="521.35,952.0869,511.7842,949.7427,516.4289,952.9717,513.1999,957.6165,521.35,952.0869" style="stroke:#181818;stroke-width:1;"/></g><!--link User to UC_EditCollection--><g class="link" data-entity-1="User" data-entity-2="UC_EditCollection" data-source-line="45" data-uid="lnk32" id="link_User_UC_EditCollection"><path d="M249.22,1094.5369 C270.19,1089.9169 294.75,1084.5469 317,1079.7969 C383.77,1065.5269 453.7433,1051.007 509.4933,1039.527" fill="none" id="User-to-UC_EditCollection" style="stroke:#181818;stroke-width:1;"/><polygon fill="#181818" points="515.37,1038.3169,505.7482,1036.2143,510.4728,1039.3253,507.3617,1044.0499,515.37,1038.3169" style="stroke:#181818;stroke-width:1;"/></g><!--link User to UC_ViewOwnReviews--><g class="link" data-entity-1="User" data-entity-2="UC_ViewOwnReviews" data-source-line="46" data-uid="lnk33" id="link_User_UC_ViewOwnReviews"><path d="M249.25,1105.7969 C309.32,1105.7969 405,1105.7969 482.76,1105.7969" fill="none" id="User-to-UC_ViewOwnReviews" style="stroke:#181818;stroke-width:1;"/><polygon fill="#181818" points="488.76,1105.7969,479.76,1101.7969,483.76,1105.7969,479.76,1109.7969,488.76,1105.7969" style="stroke:#181818;stroke-width:1;"/></g><!--link User to UC_ApplyDev--><g class="link" data-entity-1="User" data-entity-2="UC_ApplyDev" data-source-line="47" data-uid="lnk34" id="link_User_UC_ApplyDev"><path d="M249.25,1118.3069 C306.6,1132.4469 396.0444,1154.5007 472.2244,1173.2807" fill="none" id="User-to-UC_ApplyDev" style="stroke:#181818;stroke-width:1;"/><polygon fill="#181818" points="478.05,1174.7169,470.269,1168.6789,473.1953,1173.5201,468.3542,1176.4464,478.05,1174.7169" style="stroke:#181818;stroke-width:1;"/></g><!--link User to UC_Review--><g class="link" data-entity-1="User" data-entity-2="UC_Review" data-source-line="48" data-uid="lnk35" id="link_User_UC_Review"><path d="M240.56,1143.9269 C282.11,1179.4569 349,1231.1469 416,1259.7969 C451.13,1274.8169 486.9305,1282.5967 521.3705,1287.5267" fill="none" id="User-to-UC_Review" style="stroke:#181818;stroke-width:1;"/><polygon fill="#181818" points="527.31,1288.3769,518.9676,1283.1419,522.3605,1287.6684,517.834,1291.0612,527.31,1288.3769" style="stroke:#181818;stroke-width:1;"/></g><!--link User to UC_Report--><g class="link" data-entity-1="User" data-entity-2="UC_Report" data-source-line="49" data-uid="lnk36" id="link_User_UC_Report"><path d="M222.46,1144.0669 C257.65,1196.4669 328.7,1288.7069 416,1329.7969 C445.11,1343.4969 473.2228,1351.4487 503.7728,1357.4587" fill="none" id="User-to-UC_Report" style="stroke:#181818;stroke-width:1;"/><polygon fill="#181818" points="509.66,1358.6169,501.6014,1352.9549,504.754,1357.6517,500.0572,1360.8044,509.66,1358.6169" style="stroke:#181818;stroke-width:1;"/></g><!--link User to UC_GetNotified--><g class="link" data-entity-1="User" data-entity-2="UC_GetNotified" data-source-line="50" data-uid="lnk37" id="link_User_UC_GetNotified"><path d="M212.44,1144.0269 C239.56,1212.0369 306.56,1352.2969 416,1409.7969 C444.34,1424.6869 472.1084,1432.9114 502.6184,1438.7914" fill="none" id="User-to-UC_GetNotified" style="stroke:#181818;stroke-width:1;"/><polygon fill="#181818" points="508.51,1439.9269,500.4296,1434.296,503.6003,1438.9807,498.9157,1442.1514,508.51,1439.9269" style="stroke:#181818;stroke-width:1;"/></g><!--link User to UC_Logout--><g class="link" data-entity-1="User" data-entity-2="UC_Logout" data-source-line="51" data-uid="lnk38" id="link_User_UC_Logout"><path d="M208.34,1144.2069 C224.49,1202.4869 260.59,1315.1069 317,1396.7969 C351.13,1446.2169 362.68,1461.1469 416,1488.7969 C447.33,1505.0469 479.2271,1513.3883 512.0971,1518.7083" fill="none" id="User-to-UC_Logout" style="stroke:#181818;stroke-width:1;"/><polygon fill="#181818" points="518.02,1519.6669,509.7747,1514.2803,513.0842,1518.868,508.4965,1522.1776,518.02,1519.6669" style="stroke:#181818;stroke-width:1;"/></g><!--link Dev to UC_PublishGame--><g class="link" data-entity-1="Dev" data-entity-2="UC_PublishGame" data-source-line="62" data-uid="lnk45" id="link_Dev_UC_PublishGame"><path d="M630.73,273.6569 C673.74,225.9569 753.88,145.0469 839,99.7969 C861.31,87.9369 881.8102,81.0842 905.6802,75.4542" fill="none" id="Dev-to-UC_PublishGame" style="stroke:#181818;stroke-width:1;"/><polygon fill="#181818" points="911.52,74.0769,901.8421,72.2498,906.6535,75.2247,903.6786,80.0361,911.52,74.0769" style="stroke:#181818;stroke-width:1;"/></g><!--link Dev to UC_ViewPublishedGames--><g class="link" data-entity-1="Dev" data-entity-2="UC_ViewPublishedGames" data-source-line="63" data-uid="lnk46" id="link_Dev_UC_ViewPublishedGames"><path d="M643.92,287.8769 C691.88,263.3769 769.64,224.9969 839,196.7969 C858.47,188.8869 874.1016,183.105 894.1416,176.265" fill="none" id="Dev-to-UC_ViewPublishedGames" style="stroke:#181818;stroke-width:1;"/><polygon fill="#181818" points="899.82,174.3269,890.0104,173.4485,895.088,175.942,892.5946,181.0196,899.82,174.3269" style="stroke:#181818;stroke-width:1;"/></g><!--link Dev to UC_EditGame--><g class="link" data-entity-1="Dev" data-entity-2="UC_EditGame" data-source-line="64" data-uid="lnk47" id="link_Dev_UC_EditGame"><path d="M643.76,302.5869 C711.18,289.0169 831.6681,264.7616 908.9681,249.1916" fill="none" id="Dev-to-UC_EditGame" style="stroke:#181818;stroke-width:1;"/><polygon fill="#181818" points="914.85,248.0069,905.2374,245.8627,909.9484,248.9942,906.817,253.7052,914.85,248.0069" style="stroke:#181818;stroke-width:1;"/></g><!--link Dev to UC_AddGameVersion--><g class="link" data-entity-1="Dev" data-entity-2="UC_AddGameVersion" data-source-line="65" data-uid="lnk48" id="link_Dev_UC_AddGameVersion"><path d="M643.76,311.7969 C702.75,311.7969 800.88,311.7969 877.77,311.7969" fill="none" id="Dev-to-UC_AddGameVersion" style="stroke:#181818;stroke-width:1;"/><polygon fill="#181818" points="883.77,311.7969,874.77,307.7969,878.77,311.7969,874.77,315.7969,883.77,311.7969" style="stroke:#181818;stroke-width:1;"/></g><!--link Dev to UC_DeleteGameVersion--><g class="link" data-entity-1="Dev" data-entity-2="UC_DeleteGameVersion" data-source-line="66" data-uid="lnk49" id="link_Dev_UC_DeleteGameVersion"><path d="M643.76,321.1269 C710.29,334.6969 828.341,358.7682 905.881,374.5782" fill="none" id="Dev-to-UC_DeleteGameVersion" style="stroke:#181818;stroke-width:1;"/><polygon fill="#181818" points="911.76,375.7769,903.7406,370.0595,906.8608,374.778,902.1423,377.8982,911.76,375.7769" style="stroke:#181818;stroke-width:1;"/></g><!--link Dev to UC_ViewStats--><g class="link" data-entity-1="Dev" data-entity-2="UC_ViewStats" data-source-line="67" data-uid="lnk50" id="link_Dev_UC_ViewStats"><path d="M643.79,336.2269 C691.63,361.1869 769.31,400.0969 839,427.7969 C860.56,436.3669 878.7276,442.663 900.6476,449.573" fill="none" id="Dev-to-UC_ViewStats" style="stroke:#181818;stroke-width:1;"/><polygon fill="#181818" points="906.37,451.3769,898.989,444.8561,901.6013,449.8736,896.5838,452.4859,906.37,451.3769" style="stroke:#181818;stroke-width:1;"/></g><!--link Mod to UC_ManageUsers--><g class="link" data-entity-1="Mod" data-entity-2="UC_ManageUsers" data-source-line="80" data-uid="lnk58" id="link_Mod_UC_ManageUsers"><path d="M638.21,700.3669 C698.82,711.7769 809.1035,732.5371 889.1735,747.6071" fill="none" id="Mod-to-UC_ManageUsers" style="stroke:#181818;stroke-width:1;"/><polygon fill="#181818" points="895.07,748.7169,886.9651,743.1212,890.1563,747.7921,885.4854,750.9832,895.07,748.7169" style="stroke:#181818;stroke-width:1;"/></g><!--link Mod to UC_Moderate--><g class="link" data-entity-1="Mod" data-entity-2="UC_Moderate" data-source-line="81" data-uid="lnk59" id="link_Mod_UC_Moderate"><path d="M638.16,698.6769 C676.47,705.6969 734.6,720.1469 778,747.7969 C800.66,762.2369 912.4558,892.6138 958.0758,946.3238" fill="none" id="Mod-to-UC_Moderate" style="stroke:#181818;stroke-width:1;"/><polygon fill="#181818" points="961.96,950.8969,959.1823,941.4478,958.7231,947.086,953.085,946.6268,961.96,950.8969" style="stroke:#181818;stroke-width:1;"/></g><!--link UC_ManageUsers to UC_BlockUser--><g class="link" data-entity-1="UC_ManageUsers" data-entity-2="UC_BlockUser" data-source-line="84" data-uid="lnk60" id="link_UC_ManageUsers_UC_BlockUser"><path d="M1083.55,754.0969 C1195.46,742.2469 1369.1633,723.8581 1483.4533,711.7681" fill="none" id="UC_ManageUsers-to-UC_BlockUser" style="stroke:#181818;stroke-width:1;stroke-dasharray:7,7;"/><polygon fill="#181818" points="1489.42,711.1369,1480.0492,708.1058,1484.4477,711.6629,1480.8907,716.0615,1489.42,711.1369" style="stroke:#181818;stroke-width:1;"/><text fill="#000000" font-family="sans-serif" font-size="13" lengthAdjust="spacing" textLength="63.0068" x="1250.5" y="717.8638">&#171;include&#187;</text></g><!--link UC_ManageUsers to UC_UnblockUser--><g class="link" data-entity-1="UC_ManageUsers" data-entity-2="UC_UnblockUser" data-source-line="85" data-uid="lnk61" id="link_UC_ManageUsers_UC_UnblockUser"><path d="M1092.63,769.0969 C1200.81,773.3269 1359.4346,779.5327 1470.8046,783.8827" fill="none" id="UC_ManageUsers-to-UC_UnblockUser" style="stroke:#181818;stroke-width:1;stroke-dasharray:7,7;"/><polygon fill="#181818" points="1476.8,784.1169,1467.963,779.7687,1471.8038,783.9217,1467.6507,787.7626,1476.8,784.1169" style="stroke:#181818;stroke-width:1;"/><text fill="#000000" font-family="sans-serif" font-size="13" lengthAdjust="spacing" textLength="63.0068" x="1250.5" y="768.8638">&#171;include&#187;</text></g><!--link UC_ManageUsers to UC_WarnUser--><g class="link" data-entity-1="UC_ManageUsers" data-entity-2="UC_WarnUser" data-source-line="86" data-uid="lnk62" id="link_UC_ManageUsers_UC_WarnUser"><path d="M1055.28,783.7369 C1085.69,791.3669 1121.45,799.9469 1154,806.7969 C1259.92,829.0769 1375.0897,849.1424 1463.7897,863.7424" fill="none" id="UC_ManageUsers-to-UC_WarnUser" style="stroke:#181818;stroke-width:1;stroke-dasharray:7,7;"/><polygon fill="#181818" points="1469.71,864.7169,1461.4792,859.3083,1464.7764,863.9048,1460.1798,867.202,1469.71,864.7169" style="stroke:#181818;stroke-width:1;"/><text fill="#000000" font-family="sans-serif" font-size="13" lengthAdjust="spacing" textLength="63.0068" x="1250.5" y="802.8638">&#171;include&#187;</text></g><!--link UC_Moderate to UC_Approve--><g class="link" data-entity-1="UC_Moderate" data-entity-2="UC_Approve" data-source-line="89" data-uid="lnk63" id="link_UC_Moderate_UC_Approve"><path d="M1080.13,972.7969 C1200.42,972.7969 1396.61,972.7969 1508.97,972.7969" fill="none" id="UC_Moderate-to-UC_Approve" style="stroke:#181818;stroke-width:1;stroke-dasharray:7,7;"/><polygon fill="#181818" points="1514.97,972.7969,1505.97,968.7969,1509.97,972.7969,1505.97,976.7969,1514.97,972.7969" style="stroke:#181818;stroke-width:1;"/><text fill="#000000" font-family="sans-serif" font-size="13" lengthAdjust="spacing" textLength="61.1851" x="1251.5" y="968.8638">&#171;extend&#187;</text></g><!--link UC_Moderate to UC_Reject--><g class="link" data-entity-1="UC_Moderate" data-entity-2="UC_Reject" data-source-line="90" data-uid="lnk64" id="link_UC_Moderate_UC_Reject"><path d="M1019.34,993.3069 C1053.22,1011.0869 1105.42,1035.7869 1154,1047.7969 C1275.88,1077.9069 1415.9501,1082.6822 1505.9901,1082.1522" fill="none" id="UC_Moderate-to-UC_Reject" style="stroke:#181818;stroke-width:1;stroke-dasharray:7,7;"/><polygon fill="#181818" points="1511.99,1082.1169,1502.9666,1078.1699,1506.9901,1082.1463,1503.0137,1086.1698,1511.99,1082.1169" style="stroke:#181818;stroke-width:1;"/><text fill="#000000" font-family="sans-serif" font-size="13" lengthAdjust="spacing" textLength="61.1851" x="1251.8608" y="993.8638">&#171;extend&#187;</text><path d="M1159,1002.9297 L1159,1042.9297 L1405,1042.9297 L1405,1012.9297 L1395,1002.9297 L1159,1002.9297" fill="#FEFFDD" style="stroke:#181818;stroke-width:0.5;"/><path d="M1395,1002.9297 L1395,1012.9297 L1405,1012.9297 L1395,1002.9297" fill="#FEFFDD" style="stroke:#181818;stroke-width:0.5;"/><text fill="#000000" font-family="sans-serif" font-size="13" lengthAdjust="spacing" textLength="188.0049" x="1165" y="1019.9966">&#1042;&#1082;&#1083;&#1102;&#1095;&#1072;&#1077;&#1090; &#1087;&#1088;&#1086;&#1089;&#1084;&#1086;&#1090;&#1088; &#1089;&#1087;&#1080;&#1089;&#1082;&#1072;</text><text fill="#000000" font-family="sans-serif" font-size="13" lengthAdjust="spacing" textLength="225.9067" x="1165" y="1035.1294">&#1086;&#1073;&#1098;&#1077;&#1082;&#1090;&#1086;&#1074;, &#1086;&#1078;&#1080;&#1076;&#1072;&#1102;&#1097;&#1080;&#1093; &#1087;&#1088;&#1086;&#1074;&#1077;&#1088;&#1082;&#1080;</text></g><!--link Admin to UC_ViewModerations--><g class="link" data-entity-1="Admin" data-entity-2="UC_ViewModerations" data-source-line="103" data-uid="lnk69" id="link_Admin_UC_ViewModerations"><path d="M1039.77,558.3769 C1067.19,549.5169 1099.34,536.0869 1124,516.7969 C1142.07,502.6669 1135.28,488.0469 1154,474.7969 C1250.6,406.4069 1377.4728,375.2385 1472.3328,360.3285" fill="none" id="Admin-to-UC_ViewModerations" style="stroke:#181818;stroke-width:1;"/><polygon fill="#181818" points="1478.26,359.3969,1468.7481,356.8428,1473.3206,360.1732,1469.9902,364.7458,1478.26,359.3969" style="stroke:#181818;stroke-width:1;"/></g><!--link Admin to UC_GenerateStat--><g class="link" data-entity-1="Admin" data-entity-2="UC_GenerateStat" data-source-line="104" data-uid="lnk70" id="link_Admin_UC_GenerateStat"><path d="M1039.81,556.3769 C1073.02,547.1269 1115.71,535.6869 1154,526.7969 C1269.92,499.8869 1398.2871,475.3318 1488.2371,458.9518" fill="none" id="Admin-to-UC_GenerateStat" style="stroke:#181818;stroke-width:1;"/><polygon fill="#181818" points="1494.14,457.8769,1484.569,455.554,1489.2209,458.7726,1486.0022,463.4246,1494.14,457.8769" style="stroke:#181818;stroke-width:1;"/></g><!--link Admin to UC_AlterUserRole--><g class="link" data-entity-1="Admin" data-entity-2="UC_AlterUserRole" data-source-line="105" data-uid="lnk71" id="link_Admin_UC_AlterUserRole"><path d="M1039.71,568.7869 C1140.78,561.7069 1346.6447,547.2964 1477.9147,538.0964" fill="none" id="Admin-to-UC_AlterUserRole" style="stroke:#181818;stroke-width:1;"/><polygon fill="#181818" points="1483.9,537.6769,1474.6424,534.3159,1478.9122,538.0264,1475.2017,542.2963,1483.9,537.6769" style="stroke:#181818;stroke-width:1;"/></g><!--link Admin to UC_ManageMods--><g class="link" data-entity-1="Admin" data-entity-2="UC_ManageMods" data-source-line="106" data-uid="lnk72" id="link_Admin_UC_ManageMods"><path d="M1039.71,576.7069 C1143.84,583.8269 1359.534,598.5876 1489.574,607.4776" fill="none" id="Admin-to-UC_ManageMods" style="stroke:#181818;stroke-width:1;"/><polygon fill="#181818" points="1495.56,607.8869,1486.8538,603.2824,1490.5716,607.5459,1486.3081,611.2637,1495.56,607.8869" style="stroke:#181818;stroke-width:1;"/></g><!--SRC=[dLVTJXj75BxVfvXoarOgF415aIYfk6bQH9JqCdBiWMopsKNUXJHIBmAqYLeG9WrLK9g2arpqeham3WPZOtY5cJVgTyxEhcVNkmO5PCixS-QRSxxpkv4RULAeFTLLBVLHFyNtEVvRGbtYeQEVgOuwncUWDzI5QWkzhhfw7GyTTQwtn8GwL7tLqXlwLtM10tpoMFLrGp3MALOw-dS2mBc60CQ03gWpDH2uSm3XBlt0rHEEuycbI4I1gBlB3o9HS-ko6hc1xpWtlYxu4sfNlLRlrBfgglz4aOHJgKP17Lg-X7RGMczFY4eevbTb6ALxXr2ghxUXAmmaMw1jtqZU2MKz5MoIGMpM4U0sz7FetMEnct8jbNe36316SiGPx2A9Mq4jbTZ5_ZaRprJc96ThZrnOp3gAwLyc9sCbw2j-fCk6JmICJ_nWpfQmzL8TgBVWwqCnLwkXh5P22GN_r5lgA5PBRnllwCsOaBbxjwK7jrZYhy38fTxaiEWM7bdmAa-o1oYurCUKW2u-XdszZRL6Sd9HBhjX1FijxI1vHbSbCjy5osHrgfgOdffARXLVYUbf-NCa_LeuCvFGEZavOrcIMKilpAoQAygOFGIpVwiFCEm0wks2ux_e-IgUcvnSBTLZuYm6ukoxG59rXw4uT-_RcXijr8CbrvCMobkSEoMS-6IFmXd_7S0-0-nESdgkBYkHd0iypsJL4E8zgz5Fl5SASHE4bK2CiQKKZkmf13jawzUH9HSS7Xq6ma8RKAWNM4KcRgcstagmxhhoyG-F_KMvXX-XZSNvQ5GvnOy6K7fwKo3_MeA3jeMVf6y_hbEgOufNFjSXT9xSDxkouZsXL1pUT630sWcFgPh3Q2RjSigTCFMPw8zrApg_4jIZtFa-Kk-vkL9l0eOS0Ks7vYJ7vsNqVH2vIwwivRATyudIzbIG3_7V0XGL_PQLPS5gvCIbnwI57P3s-aYesPiZGPH7BDdAUTZUIfrXBngoiqlCdxraSsAl9-QMfNmJQVwAlryWwT-fVzM-UdrLmXzGdKH4zKqqjKjAxCBgVSyD7ynN7iahim8m8w1m-m1UxIJ0cImnuB96yE7rKZYd7taffzmUn8_iu6zJ3-HnOMT4ZTaQNtvNriEnXMWSHXn6nJ1bzOFYcOtZLXLNWGA6RaULA7GS15GI3RP3hEK2EgtTb2LhBMUvjJDgJ-uYerLPGBv1TEsXxpIv_noevbN1-9wR37aCuvhfEeMZK8EcbOIVMnM_iYmfKyBS2734LQmtqicACHEyRxoW-f0d73iGQNByDBmx_lq2HAfnntPlHQGZQU9V9_64ouM_13vjMJzMwduEUpZm5VIz0GFWE-KlgCawYcEcAb2zFcA0yeEeSVLWBNCE8ZqcQJ3svAByYSOSvuR0hD26Eq-friTJEgL8TbnLBPudJU3PxhQN4oi8T8ywEtUSInv5kjpb6y8Gt1fsLhfmJ8o9px4oG3lZaJ1t_HTEzbbCJSra0eX7FTUlUgirYL6lMDeAZsl99_xE2OypEqCfbjYk7WKHsdI7HnWgp2XFENPKvxFOI4DkeeFnl3NA6dLpSh6Vis9-WFt05vxhFtI4m7IQQDAYgfWCcccff27hafN32407A33_uD6DNm2_53onT3cRTl1crzM_6P2uMbF2EhXRqCtEc3UtFIJElle77tedkNRLAcc29uYQfpGrgVwe0yxiucvOGu4DiqDqRdhBTmjo7jC2F17FXFh5CCdcfS_Ee2fjuUx7hy1fXZ9H_MlKiLaFBo4KUOj1PjelgDe5AJnQiM4scWU_8DfDnMOZivcn9xEJrIopDRpgVm00]--></g></svg>