<svg xmlns="http://www.w3.org/2000/svg" xmlns:xlink="http://www.w3.org/1999/xlink" contentStyleType="text/css" data-diagram-type="DESCRIPTION" height="1642px" preserveAspectRatio="none" style="width:1616px;height:1642px;background:#FFFFFF;" version="1.1" viewBox="0 0 1616 1642" width="1616px" zoomAndPan="magnify"><title>&#1044;&#1080;&#1072;&#1075;&#1088;&#1072;&#1084;&#1084;&#1072; &#1087;&#1088;&#1077;&#1094;&#1077;&#1076;&#1077;&#1085;&#1090;&#1086;&#1074; &#1089;&#1080;&#1089;&#1090;&#1077;&#1084;&#1099; "&#1055;&#1083;&#1072;&#1090;&#1092;&#1086;&#1088;&#1084;&#1072; &#1076;&#1083;&#1103; &#1088;&#1072;&#1079;&#1084;&#1077;&#1097;&#1077;&#1085;&#1080;&#1103; &#1086;&#1085;&#1083;&#1072;&#1081;&#1085; &#1080;&#1085;&#1076;&#1080; &#1080;&#1075;&#1088;"</title><defs/><g><g class="title" data-source-line="1"><text fill="#000000" font-family="sans-serif" font-size="14" font-weight="bold" lengthAdjust="spacing" textLength="671.3779" x="465.5196" y="22.9951">&#1044;&#1080;&#1072;&#1075;&#1088;&#1072;&#1084;&#1084;&#1072; &#1087;&#1088;&#1077;&#1094;&#1077;&#1076;&#1077;&#1085;&#1090;&#1086;&#1074; &#1089;&#1080;&#1089;&#1090;&#1077;&#1084;&#1099; "&#1055;&#1083;&#1072;&#1090;&#1092;&#1086;&#1088;&#1084;&#1072; &#1076;&#1083;&#1103; &#1088;&#1072;&#1079;&#1084;&#1077;&#1097;&#1077;&#1085;&#1080;&#1103; &#1086;&#1085;&#1083;&#1072;&#1081;&#1085; &#1080;&#1085;&#1076;&#1080; &#1080;&#1075;&#1088;"</text></g><!--entity Guest--><g class="entity" data-entity="Guest" data-source-line="6" data-uid="ent0002" id="entity_Guest"><ellipse cx="26.6035" cy="1428.1469" fill="#F1F1F1" rx="8" ry="8" style="stroke:#181818;stroke-width:0.5;"/><path d="M26.6035,1436.1469 L26.6035,1463.1469 M13.6035,1444.1469 L39.6035,1444.1469 M26.6035,1463.1469 L13.6035,1478.1469 M26.6035,1463.1469 L39.6035,1478.1469" fill="none" style="stroke:#181818;stroke-width:0.5;"/><text fill="#000000" font-family="sans-serif" font-size="14" lengthAdjust="spacing" textLength="41.207" x="6" y="1492.642">&#1043;&#1086;&#1089;&#1090;&#1100;</text></g><!--entity User--><g class="entity" data-entity="User" data-source-line="7" data-uid="ent0003" id="entity_User"><ellipse cx="197.5098" cy="1128.1469" fill="#F1F1F1" rx="8" ry="8" style="stroke:#181818;stroke-width:0.5;"/><path d="M197.5098,1136.1469 L197.5098,1163.1469 M184.5098,1144.1469 L210.5098,1144.1469 M197.5098,1163.1469 L184.5098,1178.1469 M197.5098,1163.1469 L210.5098,1178.1469" fill="none" style="stroke:#181818;stroke-width:0.5;"/><text fill="#000000" font-family="sans-serif" font-size="14" lengthAdjust="spacing" textLength="103.0996" x="145.96" y="1192.642">&#1055;&#1086;&#1083;&#1100;&#1079;&#1086;&#1074;&#1072;&#1090;&#1077;&#1083;&#1100;</text></g><!--entity Dev--><g class="entity" data-entity="Dev" data-source-line="8" data-uid="ent0004" id="entity_Dev"><ellipse cx="596.6562" cy="281.1469" fill="#F1F1F1" rx="8" ry="8" style="stroke:#181818;stroke-width:0.5;"/><path d="M596.6562,289.1469 L596.6562,316.1469 M583.6562,297.1469 L609.6562,297.1469 M596.6562,316.1469 L583.6562,331.1469 M596.6562,316.1469 L609.6562,331.1469" fill="none" style="stroke:#181818;stroke-width:0.5;"/><text fill="#000000" font-family="sans-serif" font-size="14" lengthAdjust="spacing" textLength="93.1123" x="550.1" y="345.642">&#1056;&#1072;&#1079;&#1088;&#1072;&#1073;&#1086;&#1090;&#1095;&#1080;&#1082;</text></g><!--entity Mod--><g class="entity" data-entity="Mod" data-source-line="9" data-uid="ent0005" id="entity_Mod"><ellipse cx="596.6554" cy="758.1469" fill="#F1F1F1" rx="8" ry="8" style="stroke:#181818;stroke-width:0.5;"/><path d="M596.6554,766.1469 L596.6554,793.1469 M583.6554,774.1469 L609.6554,774.1469 M596.6554,793.1469 L583.6554,808.1469 M596.6554,793.1469 L609.6554,808.1469" fill="none" style="stroke:#181818;stroke-width:0.5;"/><text fill="#000000" font-family="sans-serif" font-size="14" lengthAdjust="spacing" textLength="82.0107" x="555.65" y="822.642">&#1052;&#1086;&#1076;&#1077;&#1088;&#1072;&#1090;&#1086;&#1088;</text></g><!--entity Admin--><g class="entity" data-entity="Admin" data-source-line="10" data-uid="ent0006" id="entity_Admin"><ellipse cx="1029.0674" cy="542.1469" fill="#F1F1F1" rx="8" ry="8" style="stroke:#181818;stroke-width:0.5;"/><path d="M1029.0674,550.1469 L1029.0674,577.1469 M1016.0674,558.1469 L1042.0674,558.1469 M1029.0674,577.1469 L1016.0674,592.1469 M1029.0674,577.1469 L1042.0674,592.1469" fill="none" style="stroke:#181818;stroke-width:0.5;"/><text fill="#000000" font-family="sans-serif" font-size="14" lengthAdjust="spacing" textLength="116.0947" x="971.02" y="606.642">&#1040;&#1076;&#1084;&#1080;&#1085;&#1080;&#1089;&#1090;&#1088;&#1072;&#1090;&#1086;&#1088;</text></g><!--entity UC_Select--><g class="entity" data-entity="UC_Select" data-source-line="18" data-uid="ent0011" id="entity_UC_Select"><ellipse cx="197.5094" cy="1406.7928" fill="#F1F1F1" rx="67.9794" ry="15.9959" style="stroke:#181818;stroke-width:0.5;"/><text fill="#000000" font-family="sans-serif" font-size="14" lengthAdjust="spacing" textLength="101.2402" x="146.8893" y="1411.4412">&#1042;&#1099;&#1073;&#1088;&#1072;&#1090;&#1100; &#1080;&#1075;&#1088;&#1091;</text></g><!--entity UC_Play--><g class="entity" data-entity="UC_Play" data-source-line="19" data-uid="ent0012" id="entity_UC_Play"><ellipse cx="596.6574" cy="1608.7944" fill="#F1F1F1" rx="73.2374" ry="17.0475" style="stroke:#181818;stroke-width:0.5;"/><text fill="#000000" font-family="sans-serif" font-size="14" lengthAdjust="spacing" textLength="114.4268" x="539.4441" y="1613.4428">&#1047;&#1072;&#1087;&#1091;&#1089;&#1090;&#1080;&#1090;&#1100; &#1080;&#1075;&#1088;&#1091;</text></g><!--entity UC_Register--><g class="entity" data-entity="UC_Register" data-source-line="20" data-uid="ent0013" id="entity_UC_Register"><ellipse cx="197.5098" cy="1477.7968" fill="#F1F1F1" rx="89.2998" ry="20.26" style="stroke:#181818;stroke-width:0.5;"/><text fill="#000000" font-family="sans-serif" font-size="14" lengthAdjust="spacing" textLength="152.1543" x="121.4327" y="1482.4453">&#1047;&#1072;&#1088;&#1077;&#1075;&#1080;&#1089;&#1090;&#1088;&#1080;&#1088;&#1086;&#1074;&#1072;&#1090;&#1100;&#1089;&#1103;</text></g><!--entity UC_Login--><g class="entity" data-entity="UC_Login" data-source-line="21" data-uid="ent0014" id="entity_UC_Login"><ellipse cx="197.5121" cy="1547.8005" fill="#F1F1F1" rx="34.4821" ry="14.5236" style="stroke:#181818;stroke-width:0.5;"/><text fill="#000000" font-family="sans-serif" font-size="14" lengthAdjust="spacing" textLength="44.5225" x="175.2509" y="1552.4489">&#1042;&#1086;&#1081;&#1090;&#1080;</text></g><!--entity UC_EditProfile--><g class="entity" data-entity="UC_EditProfile" data-source-line="31" data-uid="ent0019" id="entity_UC_EditProfile"><ellipse cx="596.6645" cy="883.7998" fill="#F1F1F1" rx="102.2645" ry="22.8529" style="stroke:#181818;stroke-width:0.5;"/><text fill="#000000" font-family="sans-serif" font-size="14" lengthAdjust="spacing" textLength="181.0361" x="506.1465" y="888.4482">&#1056;&#1077;&#1076;&#1072;&#1082;&#1090;&#1080;&#1088;&#1086;&#1074;&#1072;&#1090;&#1100; &#1087;&#1088;&#1086;&#1092;&#1080;&#1083;&#1100;</text></g><!--entity UC_CreateCollection--><g class="entity" data-entity="UC_CreateCollection" data-source-line="32" data-uid="ent0020" id="entity_UC_CreateCollection"><ellipse cx="596.6583" cy="961.8005" fill="#F1F1F1" rx="87.1683" ry="19.8337" style="stroke:#181818;stroke-width:0.5;"/><text fill="#000000" font-family="sans-serif" font-size="14" lengthAdjust="spacing" textLength="147.3008" x="523.0079" y="966.449">&#1057;&#1086;&#1079;&#1076;&#1072;&#1090;&#1100; &#1082;&#1086;&#1083;&#1083;&#1077;&#1082;&#1094;&#1080;&#1102;</text></g><!--entity UC_DeleteCollection--><g class="entity" data-entity="UC_DeleteCollection" data-source-line="33" data-uid="ent0021" id="entity_UC_DeleteCollection"><ellipse cx="596.6555" cy="1036.8" fill="#F1F1F1" rx="87.5155" ry="19.9031" style="stroke:#181818;stroke-width:0.5;"/><text fill="#000000" font-family="sans-serif" font-size="14" lengthAdjust="spacing" textLength="148.0938" x="522.6086" y="1041.4484">&#1059;&#1076;&#1072;&#1083;&#1080;&#1090;&#1100; &#1082;&#1086;&#1083;&#1083;&#1077;&#1082;&#1094;&#1080;&#1102;</text></g><!--entity UC_EditCollection--><g class="entity" data-entity="UC_EditCollection" data-source-line="34" data-uid="ent0022" id="entity_UC_EditCollection"><ellipse cx="596.6563" cy="1115.8001" fill="#F1F1F1" rx="110.3163" ry="24.4633" style="stroke:#181818;stroke-width:0.5;"/><text fill="#000000" font-family="sans-serif" font-size="14" lengthAdjust="spacing" textLength="198.5635" x="497.3746" y="1120.4486">&#1056;&#1077;&#1076;&#1072;&#1082;&#1090;&#1080;&#1088;&#1086;&#1074;&#1072;&#1090;&#1100; &#1082;&#1086;&#1083;&#1083;&#1077;&#1082;&#1094;&#1080;&#1102;</text></g><!--entity UC_ViewOwnReviews--><g class="entity" data-entity="UC_ViewOwnReviews" data-source-line="35" data-uid="ent0023" id="entity_UC_ViewOwnReviews"><ellipse cx="596.6635" cy="1198.7996" fill="#F1F1F1" rx="108.1635" ry="24.0327" style="stroke:#181818;stroke-width:0.5;"/><text fill="#000000" font-family="sans-serif" font-size="14" lengthAdjust="spacing" textLength="193.9014" x="499.7128" y="1203.448">&#1055;&#1088;&#1086;&#1089;&#1084;&#1086;&#1090;&#1088;&#1077;&#1090;&#1100; &#1089;&#1074;&#1086;&#1080; &#1086;&#1090;&#1079;&#1099;&#1074;&#1099;</text></g><!--entity UC_ApplyDev--><g class="entity" data-entity="UC_ApplyDev" data-source-line="36" data-uid="ent0024" id="entity_UC_ApplyDev"><ellipse cx="596.6597" cy="1296.7968" fill="#F1F1F1" rx="180.8497" ry="38.5699" style="stroke:#181818;stroke-width:0.5;"/><text fill="#000000" font-family="sans-serif" font-size="14" lengthAdjust="spacing" textLength="346.2402" x="423.5395" y="1301.4452">&#1055;&#1086;&#1076;&#1072;&#1090;&#1100; &#1079;&#1072;&#1103;&#1074;&#1082;&#1091; &#1085;&#1072; &#1089;&#1090;&#1072;&#1085;&#1086;&#1074;&#1083;&#1077;&#1085;&#1080;&#1077; &#1088;&#1072;&#1079;&#1088;&#1072;&#1073;&#1086;&#1090;&#1095;&#1080;&#1082;&#1086;&#1084;</text></g><!--entity UC_Review--><g class="entity" data-entity="UC_Review" data-source-line="37" data-uid="ent0025" id="entity_UC_Review"><ellipse cx="596.6615" cy="1387.7952" fill="#F1F1F1" rx="74.3415" ry="17.2683" style="stroke:#181818;stroke-width:0.5;"/><text fill="#000000" font-family="sans-serif" font-size="14" lengthAdjust="spacing" textLength="117.127" x="538.098" y="1392.4436">&#1054;&#1089;&#1090;&#1072;&#1074;&#1080;&#1090;&#1100; &#1086;&#1090;&#1079;&#1099;&#1074;</text></g><!--entity UC_GetNotified--><g class="entity" data-entity="UC_GetNotified" data-source-line="38" data-uid="ent0026" id="entity_UC_GetNotified"><ellipse cx="596.6556" cy="1461.794" fill="#F1F1F1" rx="98.5856" ry="22.1171" style="stroke:#181818;stroke-width:0.5;"/><text fill="#000000" font-family="sans-serif" font-size="14" lengthAdjust="spacing" textLength="172.9355" x="510.1878" y="1466.4424">&#1055;&#1086;&#1083;&#1091;&#1095;&#1080;&#1090;&#1100; &#1091;&#1074;&#1077;&#1076;&#1086;&#1084;&#1083;&#1077;&#1085;&#1080;&#1077;</text></g><!--entity UC_Logout--><g class="entity" data-entity="UC_Logout" data-source-line="39" data-uid="ent0027" id="entity_UC_Logout"><ellipse cx="596.6649" cy="1537.7958" fill="#F1F1F1" rx="84.2949" ry="19.259" style="stroke:#181818;stroke-width:0.5;"/><text fill="#000000" font-family="sans-serif" font-size="14" lengthAdjust="spacing" textLength="140.6973" x="526.3162" y="1542.4443">&#1042;&#1099;&#1081;&#1090;&#1080; &#1080;&#1079; &#1072;&#1082;&#1082;&#1072;&#1091;&#1085;&#1090;&#1072;</text></g><!--entity UC_PublishGame--><g class="entity" data-entity="UC_PublishGame" data-source-line="53" data-uid="ent0037" id="entity_UC_PublishGame"><ellipse cx="1029.0686" cy="62.7966" fill="#F1F1F1" rx="85.4986" ry="19.4997" style="stroke:#181818;stroke-width:0.5;"/><text fill="#000000" font-family="sans-serif" font-size="14" lengthAdjust="spacing" textLength="143.4727" x="957.3323" y="67.445">&#1054;&#1087;&#1091;&#1073;&#1083;&#1080;&#1082;&#1086;&#1074;&#1072;&#1090;&#1100; &#1080;&#1075;&#1088;&#1091;</text></g><!--entity UC_ViewPublishedGames--><g class="entity" data-entity="UC_ViewPublishedGames" data-source-line="54" data-uid="ent0038" id="entity_UC_ViewPublishedGames"><ellipse cx="1029.0707" cy="147.801" fill="#F1F1F1" rx="142.4207" ry="30.8841" style="stroke:#181818;stroke-width:0.5;"/><text fill="#000000" font-family="sans-serif" font-size="14" lengthAdjust="spacing" textLength="266.6699" x="895.7358" y="152.4495">&#1055;&#1088;&#1086;&#1089;&#1084;&#1086;&#1090;&#1088;&#1077;&#1090;&#1100; &#1086;&#1087;&#1091;&#1073;&#1083;&#1080;&#1082;&#1086;&#1074;&#1072;&#1085;&#1085;&#1099;&#1077; &#1080;&#1075;&#1088;&#1099;</text></g><!--entity UC_EditGame--><g class="entity" data-entity="UC_EditGame" data-source-line="55" data-uid="ent0039" id="entity_UC_EditGame"><ellipse cx="1029.0691" cy="233.7987" fill="#F1F1F1" rx="88.2591" ry="20.0518" style="stroke:#181818;stroke-width:0.5;"/><text fill="#000000" font-family="sans-serif" font-size="14" lengthAdjust="spacing" textLength="149.7891" x="954.1746" y="238.4471">&#1056;&#1077;&#1076;&#1072;&#1082;&#1090;&#1080;&#1088;&#1086;&#1074;&#1072;&#1090;&#1100; &#1080;&#1075;&#1088;&#1091;</text></g><!--entity UC_AddGameVersion--><g class="entity" data-entity="UC_AddGameVersion" data-source-line="56" data-uid="ent0040" id="entity_UC_AddGameVersion"><ellipse cx="1029.0744" cy="310.7977" fill="#F1F1F1" rx="97.3044" ry="21.8609" style="stroke:#181818;stroke-width:0.5;"/><text fill="#000000" font-family="sans-serif" font-size="14" lengthAdjust="spacing" textLength="170.0986" x="944.025" y="315.4462">&#1044;&#1086;&#1073;&#1072;&#1074;&#1080;&#1090;&#1100; &#1074;&#1077;&#1088;&#1089;&#1080;&#1102; &#1080;&#1075;&#1088;&#1099;</text></g><!--entity UC_DeleteGameVersion--><g class="entity" data-entity="UC_DeleteGameVersion" data-source-line="57" data-uid="ent0041" id="entity_UC_DeleteGameVersion"><ellipse cx="1029.075" cy="388.7999" fill="#F1F1F1" rx="93.165" ry="21.033" style="stroke:#181818;stroke-width:0.5;"/><text fill="#000000" font-family="sans-serif" font-size="14" lengthAdjust="spacing" textLength="160.8701" x="948.6399" y="393.4483">&#1059;&#1076;&#1072;&#1083;&#1080;&#1090;&#1100; &#1074;&#1077;&#1088;&#1089;&#1080;&#1102; &#1080;&#1075;&#1088;&#1099;</text></g><!--entity UC_ViewStats--><g class="entity" data-entity="UC_ViewStats" data-source-line="58" data-uid="ent0042" id="entity_UC_ViewStats"><ellipse cx="1029.0732" cy="471.7975" fill="#F1F1F1" rx="122.9032" ry="26.9806" style="stroke:#181818;stroke-width:0.5;"/><text fill="#000000" font-family="sans-serif" font-size="14" lengthAdjust="spacing" textLength="225.5381" x="916.3042" y="476.446">&#1055;&#1088;&#1086;&#1089;&#1084;&#1086;&#1090;&#1088;&#1077;&#1090;&#1100; &#1089;&#1090;&#1072;&#1090;&#1080;&#1089;&#1090;&#1080;&#1082;&#1091; &#1080;&#1075;&#1088;&#1099;</text></g><!--entity UC_ViewUnmoderated--><g class="entity" data-entity="UC_ViewUnmoderated" data-source-line="69" data-uid="ent0049" id="entity_UC_ViewUnmoderated"><ellipse cx="1029.072" cy="685.7993" fill="#F1F1F1" rx="190.562" ry="40.5124" style="stroke:#181818;stroke-width:0.5;"/><text fill="#000000" font-family="sans-serif" font-size="14" lengthAdjust="spacing" textLength="366.167" x="845.9885" y="690.4477">&#1055;&#1088;&#1086;&#1089;&#1084;&#1086;&#1090;&#1088;&#1077;&#1090;&#1100; &#1089;&#1091;&#1097;&#1085;&#1086;&#1089;&#1090;&#1080;, &#1087;&#1086;&#1076;&#1083;&#1077;&#1078;&#1072;&#1097;&#1080;&#1077; &#1084;&#1086;&#1076;&#1077;&#1088;&#1072;&#1094;&#1080;&#1080;</text></g><!--entity UC_BlockUser--><g class="entity" data-entity="UC_BlockUser" data-source-line="70" data-uid="ent0050" id="entity_UC_BlockUser"><ellipse cx="1029.0723" cy="787.7973" fill="#F1F1F1" rx="119.5023" ry="26.3005" style="stroke:#181818;stroke-width:0.5;"/><text fill="#000000" font-family="sans-serif" font-size="14" lengthAdjust="spacing" textLength="218.292" x="919.9263" y="792.4458">&#1047;&#1072;&#1073;&#1083;&#1086;&#1082;&#1080;&#1088;&#1086;&#1074;&#1072;&#1090;&#1100; &#1087;&#1086;&#1083;&#1100;&#1079;&#1086;&#1074;&#1072;&#1090;&#1077;&#1083;&#1103;</text></g><!--entity UC_UnblockUser--><g class="entity" data-entity="UC_UnblockUser" data-source-line="71" data-uid="ent0051" id="entity_UC_UnblockUser"><ellipse cx="1029.0657" cy="875.796" fill="#F1F1F1" rx="122.7457" ry="26.9491" style="stroke:#181818;stroke-width:0.5;"/><text fill="#000000" font-family="sans-serif" font-size="14" lengthAdjust="spacing" textLength="225.2031" x="916.4642" y="880.4445">&#1056;&#1072;&#1079;&#1073;&#1083;&#1086;&#1082;&#1080;&#1088;&#1086;&#1074;&#1072;&#1090;&#1100; &#1087;&#1086;&#1083;&#1100;&#1079;&#1086;&#1074;&#1072;&#1090;&#1077;&#1083;&#1103;</text></g><!--entity UC_WarnUser--><g class="entity" data-entity="UC_WarnUser" data-source-line="72" data-uid="ent0052" id="entity_UC_WarnUser"><ellipse cx="1029.0732" cy="971.8015" fill="#F1F1F1" rx="157.7232" ry="33.9446" style="stroke:#181818;stroke-width:0.5;"/><text fill="#000000" font-family="sans-serif" font-size="14" lengthAdjust="spacing" textLength="298.5254" x="879.8105" y="976.45">&#1042;&#1099;&#1076;&#1072;&#1090;&#1100; &#1087;&#1088;&#1077;&#1076;&#1091;&#1087;&#1088;&#1077;&#1078;&#1076;&#1077;&#1085;&#1080;&#1077; &#1087;&#1086;&#1083;&#1100;&#1079;&#1086;&#1074;&#1072;&#1090;&#1077;&#1083;&#1102;</text></g><!--entity UC_Moderate--><g class="entity" data-entity="UC_Moderate" data-source-line="73" data-uid="ent0053" id="entity_UC_Moderate"><ellipse cx="1029.0706" cy="1056.795" fill="#F1F1F1" rx="70.4906" ry="16.4981" style="stroke:#181818;stroke-width:0.5;"/><text fill="#000000" font-family="sans-serif" font-size="14" lengthAdjust="spacing" textLength="107.6113" x="975.2649" y="1061.4434">&#1052;&#1086;&#1076;&#1077;&#1088;&#1080;&#1088;&#1086;&#1074;&#1072;&#1090;&#1100;</text></g><!--entity UC_ViewModerations--><g class="entity" data-entity="UC_ViewModerations" data-source-line="83" data-uid="ent0059" id="entity_UC_ViewModerations"><ellipse cx="1445.5247" cy="478.7938" fill="#F1F1F1" rx="103.5847" ry="23.1169" style="stroke:#181818;stroke-width:0.5;"/><text fill="#000000" font-family="sans-serif" font-size="14" lengthAdjust="spacing" textLength="183.9277" x="1353.5608" y="483.4422">&#1055;&#1088;&#1086;&#1089;&#1084;&#1086;&#1090;&#1088;&#1077;&#1090;&#1100; &#1084;&#1086;&#1076;&#1077;&#1088;&#1072;&#1094;&#1080;&#1080;</text></g><!--entity UC_GenerateStat--><g class="entity" data-entity="UC_GenerateStat" data-source-line="84" data-uid="ent0060" id="entity_UC_GenerateStat"><ellipse cx="1445.5235" cy="571.7956" fill="#F1F1F1" rx="164.8935" ry="35.3787" style="stroke:#181818;stroke-width:0.5;"/><text fill="#000000" font-family="sans-serif" font-size="14" lengthAdjust="spacing" textLength="313.3662" x="1288.8404" y="576.444">&#1057;&#1086;&#1089;&#1090;&#1072;&#1074;&#1080;&#1090;&#1100; &#1089;&#1090;&#1072;&#1090;&#1080;&#1089;&#1090;&#1080;&#1095;&#1077;&#1089;&#1082;&#1080;&#1081; &#1086;&#1090;&#1095;&#1105;&#1090; &#1086;&#1073; &#1080;&#1075;&#1088;&#1072;&#1093;</text></g><!--entity UC_AlterUserRole--><g class="entity" data-entity="UC_AlterUserRole" data-source-line="85" data-uid="ent0061" id="entity_UC_AlterUserRole"><ellipse cx="1445.5201" cy="668.7949" fill="#F1F1F1" rx="118.9901" ry="26.198" style="stroke:#181818;stroke-width:0.5;"/><text fill="#000000" font-family="sans-serif" font-size="14" lengthAdjust="spacing" textLength="217.1982" x="1336.9209" y="673.4433">&#1048;&#1079;&#1084;&#1077;&#1085;&#1080;&#1090;&#1100; &#1088;&#1086;&#1083;&#1100; &#1087;&#1086;&#1083;&#1100;&#1079;&#1086;&#1074;&#1072;&#1090;&#1077;&#1083;&#1103;</text></g><!--reverse link Guest to User--><g class="link" data-entity-1="Guest" data-entity-2="User" data-source-line="12" data-uid="lnk7" id="link_Guest_User"><path d="M56.4698,1406.5214 C88.4498,1349.7114 141.95,1254.6969 174.9,1196.1769" fill="none" id="Guest-backto-User" style="stroke:#181818;stroke-width:1;"/><polygon fill="none" points="47.64,1422.2069,61.6983,1409.4647,51.2413,1403.5781,47.64,1422.2069" style="stroke:#181818;stroke-width:1;"/></g><!--reverse link User to Dev--><g class="link" data-entity-1="User" data-entity-2="Dev" data-source-line="13" data-uid="lnk8" id="link_User_Dev"><path d="M220.5324,1102.4472 C242.4124,1047.8172 277.6,961.7769 316.81,875.7969 C408.37,674.9969 528.8,439.7869 575.73,349.1069" fill="none" id="User-backto-Dev" style="stroke:#181818;stroke-width:1;"/><polygon fill="none" points="213.84,1119.1569,226.1023,1104.6781,214.9625,1100.2164,213.84,1119.1569" style="stroke:#181818;stroke-width:1;"/></g><!--reverse link User to Mod--><g class="link" data-entity-1="User" data-entity-2="Mod" data-source-line="14" data-uid="lnk9" id="link_User_Mod"><path d="M219.8194,1102.4805 C247.6594,1034.2405 308.66,910.0069 415.81,843.7969 C459.48,816.8069 517.23,801.8569 555.36,794.3369" fill="none" id="User-backto-Mod" style="stroke:#181818;stroke-width:1;"/><polygon fill="none" points="213.02,1119.1469,225.3749,1104.747,214.264,1100.214,213.02,1119.1469" style="stroke:#181818;stroke-width:1;"/></g><!--reverse link Mod to Admin--><g class="link" data-entity-1="Mod" data-entity-2="Admin" data-source-line="15" data-uid="lnk10" id="link_Mod_Admin"><path d="M652.2792,744.4486 C698.3892,708.8586 763,663.0469 838.51,627.7969 C881.1,607.9069 932.4,593.2669 970.88,583.9569" fill="none" id="Mod-backto-Admin" style="stroke:#181818;stroke-width:1;"/><polygon fill="none" points="638.03,755.4469,655.9453,749.1984,648.6131,739.6989,638.03,755.4469" style="stroke:#181818;stroke-width:1;"/></g><!--reverse link UC_Select to UC_Play--><g class="link" data-entity-1="UC_Select" data-entity-2="UC_Play" data-source-line="23" data-uid="lnk15" id="link_UC_Select_UC_Play"><path d="M256.6239,1418.9205 C269.9739,1423.8105 277.51,1429.0069 286.81,1439.7969 C328.64,1488.3269 269.09,1538.0369 316.81,1580.7969 C377.86,1635.5069 479.35,1630.3269 541.59,1620.3969" fill="none" id="UC_Select-backto-UC_Play" style="stroke:#181818;stroke-width:1;"/><polygon fill="#181818" points="250.99,1416.8569,258.0651,1423.7083,255.6849,1418.5766,260.8167,1416.1964,250.99,1416.8569" style="stroke:#181818;stroke-width:1;"/><text fill="#000000" font-family="sans-serif" font-size="13" lengthAdjust="spacing" textLength="67.958" x="317.81" y="1576.8638">&#171;extends&#187;</text></g><!--link Guest to UC_Select--><g class="link" data-entity-1="Guest" data-entity-2="UC_Select" data-source-line="25" data-uid="lnk16" id="link_Guest_UC_Select"><path d="M47.64,1451.7469 C73.77,1443.8569 114.4058,1431.5801 148.4758,1421.3001" fill="none" id="Guest-to-UC_Select" style="stroke:#181818;stroke-width:1;"/><polygon fill="#181818" points="154.22,1419.5669,144.4482,1418.3372,149.4332,1421.0112,146.7592,1425.9962,154.22,1419.5669" style="stroke:#181818;stroke-width:1;"/></g><!--link Guest to UC_Register--><g class="link" data-entity-1="Guest" data-entity-2="UC_Register" data-source-line="26" data-uid="lnk17" id="link_Guest_UC_Register"><path d="M47.64,1460.1669 C65.12,1462.2369 85.7016,1464.6715 111.5516,1467.7315" fill="none" id="Guest-to-UC_Register" style="stroke:#181818;stroke-width:1;"/><polygon fill="#181818" points="117.51,1468.4369,109.0426,1463.4066,112.5447,1467.8491,108.1022,1471.3512,117.51,1468.4369" style="stroke:#181818;stroke-width:1;"/></g><!--link Guest to UC_Login--><g class="link" data-entity-1="Guest" data-entity-2="UC_Login" data-source-line="27" data-uid="lnk18" id="link_Guest_UC_Login"><path d="M47.46,1474.4669 C63.18,1487.0669 86.1,1504.1269 108.21,1515.7969 C127.39,1525.9169 144.7471,1532.3546 162.4971,1537.9446" fill="none" id="Guest-to-UC_Login" style="stroke:#181818;stroke-width:1;"/><polygon fill="#181818" points="168.22,1539.7469,160.8372,1533.2281,163.4509,1538.2449,158.4341,1540.8587,168.22,1539.7469" style="stroke:#181818;stroke-width:1;"/></g><!--link User to UC_EditProfile--><g class="link" data-entity-1="User" data-entity-2="UC_EditProfile" data-source-line="41" data-uid="lnk28" id="link_User_UC_EditProfile"><path d="M221.66,1119.3269 C256.38,1065.5169 327.39,969.3569 415.81,924.7969 C443.98,910.5969 471.2104,902.4527 501.3004,896.3327" fill="none" id="User-to-UC_EditProfile" style="stroke:#181818;stroke-width:1;"/><polygon fill="#181818" points="507.18,895.1369,497.5633,893.0109,502.2803,896.1334,499.1578,900.8504,507.18,895.1369" style="stroke:#181818;stroke-width:1;"/></g><!--link User to UC_CreateCollection--><g class="link" data-entity-1="User" data-entity-2="UC_CreateCollection" data-source-line="42" data-uid="lnk29" id="link_User_UC_CreateCollection"><path d="M239.58,1119.3769 C280.9,1082.9069 348.06,1029.3869 415.81,999.7969 C448.12,985.6769 480.1387,977.6946 512.8087,972.0146" fill="none" id="User-to-UC_CreateCollection" style="stroke:#181818;stroke-width:1;"/><polygon fill="#181818" points="518.72,970.9869,509.1679,968.5876,513.7939,971.8433,510.5382,976.4694,518.72,970.9869" style="stroke:#181818;stroke-width:1;"/></g><!--link User to UC_DeleteCollection--><g class="link" data-entity-1="User" data-entity-2="UC_DeleteCollection" data-source-line="43" data-uid="lnk30" id="link_User_UC_DeleteCollection"><path d="M249.48,1135.3169 C293,1116.8069 357.6,1090.9069 415.81,1073.7969 C451.28,1063.3669 485.6426,1055.9019 519.0526,1049.6419" fill="none" id="User-to-UC_DeleteCollection" style="stroke:#181818;stroke-width:1;"/><polygon fill="#181818" points="524.95,1048.5369,515.3673,1046.2628,520.0355,1049.4577,516.8406,1054.1259,524.95,1048.5369" style="stroke:#181818;stroke-width:1;"/></g><!--link User to UC_EditCollection--><g class="link" data-entity-1="User" data-entity-2="UC_EditCollection" data-source-line="44" data-uid="lnk31" id="link_User_UC_EditCollection"><path d="M249.21,1152.4369 C311.32,1145.8669 411.9833,1135.2177 490.5833,1126.9077" fill="none" id="User-to-UC_EditCollection" style="stroke:#181818;stroke-width:1;"/><polygon fill="#181818" points="496.55,1126.2769,487.1793,1123.2453,491.5777,1126.8026,488.0204,1131.201,496.55,1126.2769" style="stroke:#181818;stroke-width:1;"/></g><!--link User to UC_ViewOwnReviews--><g class="link" data-entity-1="User" data-entity-2="UC_ViewOwnReviews" data-source-line="45" data-uid="lnk32" id="link_User_UC_ViewOwnReviews"><path d="M249.21,1163.0269 C311.63,1169.4769 413.0518,1179.9404 491.7618,1188.0704" fill="none" id="User-to-UC_ViewOwnReviews" style="stroke:#181818;stroke-width:1;"/><polygon fill="#181818" points="497.73,1188.6869,489.1886,1183.7833,492.7565,1188.1732,488.3667,1191.741,497.73,1188.6869" style="stroke:#181818;stroke-width:1;"/></g><!--link User to UC_ApplyDev--><g class="link" data-entity-1="User" data-entity-2="UC_ApplyDev" data-source-line="46" data-uid="lnk33" id="link_User_UC_ApplyDev"><path d="M249.54,1178.3369 C293.37,1195.7169 358.37,1220.9069 415.81,1240.7969 C439.76,1249.0869 459.9643,1255.7035 484.4843,1263.3835" fill="none" id="User-to-UC_ApplyDev" style="stroke:#181818;stroke-width:1;"/><polygon fill="#181818" points="490.21,1265.1769,482.817,1258.6697,485.4386,1263.6824,480.4258,1266.304,490.21,1265.1769" style="stroke:#181818;stroke-width:1;"/></g><!--link User to UC_Review--><g class="link" data-entity-1="User" data-entity-2="UC_Review" data-source-line="47" data-uid="lnk34" id="link_User_UC_Review"><path d="M229.82,1196.4269 C268.57,1241.4369 338.89,1314.5169 415.81,1352.7969 C449.55,1369.5869 484.642,1377.549 518.992,1382.099" fill="none" id="User-to-UC_Review" style="stroke:#181818;stroke-width:1;"/><polygon fill="#181818" points="524.94,1382.8869,516.5432,1377.7397,519.9833,1382.2303,515.4927,1385.6704,524.94,1382.8869" style="stroke:#181818;stroke-width:1;"/></g><!--link User to UC_GetNotified--><g class="link" data-entity-1="User" data-entity-2="UC_GetNotified" data-source-line="48" data-uid="lnk35" id="link_User_UC_GetNotified"><path d="M216.26,1196.1069 C246.97,1257.2369 316.41,1374.8269 415.81,1422.7969 C444.58,1436.6769 472.4261,1444.5435 502.8561,1450.3435" fill="none" id="User-to-UC_GetNotified" style="stroke:#181818;stroke-width:1;"/><polygon fill="#181818" points="508.75,1451.4669,500.6581,1445.8525,503.8384,1450.5307,499.1602,1453.7111,508.75,1451.4669" style="stroke:#181818;stroke-width:1;"/></g><!--link User to UC_Logout--><g class="link" data-entity-1="User" data-entity-2="UC_Logout" data-source-line="49" data-uid="lnk36" id="link_User_UC_Logout"><path d="M210.84,1196.2569 C228.78,1248.5569 265.61,1343.5269 316.81,1412.7969 C351.97,1460.3769 362.92,1475.2669 415.81,1501.7969 C446.97,1517.4269 478.4493,1525.3675 511.0593,1530.3675" fill="none" id="User-to-UC_Logout" style="stroke:#181818;stroke-width:1;"/><polygon fill="#181818" points="516.99,1531.2769,508.7002,1525.9591,512.0478,1530.5191,507.4877,1533.8667,516.99,1531.2769" style="stroke:#181818;stroke-width:1;"/></g><!--link Dev to UC_PublishGame--><g class="link" data-entity-1="Dev" data-entity-2="UC_PublishGame" data-source-line="60" data-uid="lnk43" id="link_Dev_UC_PublishGame"><path d="M629.6,272.4169 C672.07,224.0969 751.92,142.2769 838.51,99.7969 C872.22,83.2569 906.7821,74.968 941.6721,69.908" fill="none" id="Dev-to-UC_PublishGame" style="stroke:#181818;stroke-width:1;"/><polygon fill="#181818" points="947.61,69.0469,938.1291,66.38,942.6618,69.7645,939.2773,74.2972,947.61,69.0469" style="stroke:#181818;stroke-width:1;"/></g><!--link Dev to UC_ViewPublishedGames--><g class="link" data-entity-1="Dev" data-entity-2="UC_ViewPublishedGames" data-source-line="61" data-uid="lnk44" id="link_Dev_UC_ViewPublishedGames"><path d="M643.56,285.5169 C691.17,260.0969 768.34,221.1469 838.51,195.7969 C866.6,185.6469 891.9602,178.2564 920.7902,171.0264" fill="none" id="Dev-to-UC_ViewPublishedGames" style="stroke:#181818;stroke-width:1;"/><polygon fill="#181818" points="926.61,169.5669,916.9073,167.8763,921.7602,170.7831,918.8533,175.636,926.61,169.5669" style="stroke:#181818;stroke-width:1;"/></g><!--link Dev to UC_EditGame--><g class="link" data-entity-1="Dev" data-entity-2="UC_EditGame" data-source-line="62" data-uid="lnk45" id="link_Dev_UC_EditGame"><path d="M643.31,302.6269 C718.71,289.1369 863.8138,263.1834 952.5838,247.3034" fill="none" id="Dev-to-UC_EditGame" style="stroke:#181818;stroke-width:1;"/><polygon fill="#181818" points="958.49,246.2469,948.9263,243.8942,953.5681,247.1273,950.335,251.7692,958.49,246.2469" style="stroke:#181818;stroke-width:1;"/></g><!--link Dev to UC_AddGameVersion--><g class="link" data-entity-1="Dev" data-entity-2="UC_AddGameVersion" data-source-line="63" data-uid="lnk46" id="link_Dev_UC_AddGameVersion"><path d="M643.31,310.7969 C711.46,310.7969 835.39,310.7969 925.29,310.7969" fill="none" id="Dev-to-UC_AddGameVersion" style="stroke:#181818;stroke-width:1;"/><polygon fill="#181818" points="931.29,310.7969,922.29,306.7969,926.29,310.7969,922.29,314.7969,931.29,310.7969" style="stroke:#181818;stroke-width:1;"/></g><!--link Dev to UC_DeleteGameVersion--><g class="link" data-entity-1="Dev" data-entity-2="UC_DeleteGameVersion" data-source-line="64" data-uid="lnk47" id="link_Dev_UC_DeleteGameVersion"><path d="M643.31,319.0669 C717.84,332.5769 860.3661,358.4071 949.4961,374.5571" fill="none" id="Dev-to-UC_DeleteGameVersion" style="stroke:#181818;stroke-width:1;"/><polygon fill="#181818" points="955.4,375.6269,947.2574,370.0863,950.4801,374.7354,945.831,377.9581,955.4,375.6269" style="stroke:#181818;stroke-width:1;"/></g><!--link Dev to UC_ViewStats--><g class="link" data-entity-1="Dev" data-entity-2="UC_ViewStats" data-source-line="65" data-uid="lnk48" id="link_Dev_UC_ViewStats"><path d="M643.39,336.8569 C690.88,362.9869 767.95,402.8269 838.51,427.7969 C869.08,438.6169 897.5235,446.2027 928.4635,453.0927" fill="none" id="Dev-to-UC_ViewStats" style="stroke:#181818;stroke-width:1;"/><polygon fill="#181818" points="934.32,454.3969,926.4046,448.5362,929.4395,453.3101,924.6657,456.345,934.32,454.3969" style="stroke:#181818;stroke-width:1;"/></g><!--link Mod to UC_ViewUnmoderated--><g class="link" data-entity-1="Mod" data-entity-2="UC_ViewUnmoderated" data-source-line="75" data-uid="lnk54" id="link_Mod_UC_ViewUnmoderated"><path d="M638.15,778.1969 C697.58,764.1169 805.2118,738.6107 894.4818,717.4507" fill="none" id="Mod-to-UC_ViewUnmoderated" style="stroke:#181818;stroke-width:1;"/><polygon fill="#181818" points="900.32,716.0669,890.6401,714.2505,895.4548,717.2201,892.4852,722.0348,900.32,716.0669" style="stroke:#181818;stroke-width:1;"/></g><!--link Mod to UC_BlockUser--><g class="link" data-entity-1="Mod" data-entity-2="UC_BlockUser" data-source-line="76" data-uid="lnk55" id="link_Mod_UC_BlockUser"><path d="M638.15,787.7969 C699.57,787.7969 812.7,787.7969 903.2,787.7969" fill="none" id="Mod-to-UC_BlockUser" style="stroke:#181818;stroke-width:1;"/><polygon fill="#181818" points="909.2,787.7969,900.2,783.7969,904.2,787.7969,900.2,791.7969,909.2,787.7969" style="stroke:#181818;stroke-width:1;"/></g><!--link Mod to UC_UnblockUser--><g class="link" data-entity-1="Mod" data-entity-2="UC_UnblockUser" data-source-line="77" data-uid="lnk56" id="link_Mod_UC_UnblockUser"><path d="M638.15,796.0769 C706.37,810.0269 839.9116,837.3251 932.2116,856.1951" fill="none" id="Mod-to-UC_UnblockUser" style="stroke:#181818;stroke-width:1;"/><polygon fill="#181818" points="938.09,857.3969,930.0736,851.6752,933.1913,856.3954,928.4712,859.5131,938.09,857.3969" style="stroke:#181818;stroke-width:1;"/></g><!--link Mod to UC_WarnUser--><g class="link" data-entity-1="Mod" data-entity-2="UC_WarnUser" data-source-line="78" data-uid="lnk57" id="link_Mod_UC_WarnUser"><path d="M638.14,793.4069 C676.68,800.2769 734.94,814.7869 777.51,843.7969 C813.3,868.1869 802.3,896.0169 838.51,919.7969 C858.76,933.0969 876.6364,941.2168 900.1664,948.6168" fill="none" id="Mod-to-UC_WarnUser" style="stroke:#181818;stroke-width:1;"/><polygon fill="#181818" points="905.89,950.4169,898.5046,943.9011,901.1203,948.9168,896.1045,951.5326,905.89,950.4169" style="stroke:#181818;stroke-width:1;"/></g><!--link Mod to UC_Moderate--><g class="link" data-entity-1="Mod" data-entity-2="UC_Moderate" data-source-line="79" data-uid="lnk58" id="link_Mod_UC_Moderate"><path d="M637.99,790.0369 C678.37,794.3869 739.78,807.0669 777.51,843.7969 C837.72,902.4269 774.76,968.0169 838.51,1022.7969 C871.72,1051.3469 914.5829,1059.3915 954.3829,1060.6215" fill="none" id="Mod-to-UC_Moderate" style="stroke:#181818;stroke-width:1;"/><polygon fill="#181818" points="960.38,1060.8069,951.5079,1056.5308,955.3824,1060.6524,951.2607,1064.527,960.38,1060.8069" style="stroke:#181818;stroke-width:1;"/></g><!--link Admin to UC_ViewModerations--><g class="link" data-entity-1="Admin" data-entity-2="UC_ViewModerations" data-source-line="87" data-uid="lnk62" id="link_Admin_UC_ViewModerations"><path d="M1087.26,558.9569 C1161.21,542.3669 1284.2355,514.7603 1365.3155,496.5703" fill="none" id="Admin-to-UC_ViewModerations" style="stroke:#181818;stroke-width:1;"/><polygon fill="#181818" points="1371.17,495.2569,1361.5127,493.324,1366.2913,496.3514,1363.2639,501.13,1371.17,495.2569" style="stroke:#181818;stroke-width:1;"/></g><!--link Admin to UC_GenerateStat--><g class="link" data-entity-1="Admin" data-entity-2="UC_GenerateStat" data-source-line="88" data-uid="lnk63" id="link_Admin_UC_GenerateStat"><path d="M1087.26,571.7969 C1137.11,571.7969 1205.94,571.7969 1274.25,571.7969" fill="none" id="Admin-to-UC_GenerateStat" style="stroke:#181818;stroke-width:1;"/><polygon fill="#181818" points="1280.25,571.7969,1271.25,567.7969,1275.25,571.7969,1271.25,575.7969,1280.25,571.7969" style="stroke:#181818;stroke-width:1;"/></g><!--link Admin to UC_AlterUserRole--><g class="link" data-entity-1="Admin" data-entity-2="UC_AlterUserRole" data-source-line="89" data-uid="lnk64" id="link_Admin_UC_AlterUserRole"><path d="M1087.26,585.1769 C1158.65,601.8869 1275.4079,629.2195 1356.7579,648.2595" fill="none" id="Admin-to-UC_AlterUserRole" style="stroke:#181818;stroke-width:1;"/><polygon fill="#181818" points="1362.6,649.6269,1354.7484,643.6811,1357.7316,648.4874,1352.9253,651.4706,1362.6,649.6269" style="stroke:#181818;stroke-width:1;"/></g><!--SRC=[fLVDJXn74BxFKxIuv69U829814TSuWHXOH-jDTFWKOOTQsQmOoa7mpgsB931CP6Huonhvv23VLZMh5bOTlqArM-KhxhdfsTsXeqILhkQwQxwgkghgguczc9V2Zga0NNfatgCtqjykeA-uAMldbAVJl4TgHqQKq-eRHgeRRpqwLBjYXawfY5rrOvwGcCeQCrJ6gfzeR7EiD9Npna0Uli262DMe7CQ2TWSGNZ03p0zupY-N8z578ZGsxWN2zSBvLhi1Kt7-UgRYZz11_I6tjCsTUY3g99m6cjn4CBBL_0ENgkz6T68nDAMZE9ixnXE3TKUV4M070ky7IQIgv4CCy4E1wJ3EW7SZde6lo-qs7Nv89Dw2nWmndBC6U9YYHk1cqaSOFzI1w-fB4akk9iU8jO-YhbVPcUD4_nZNjbO_iR0-9gNHBU6hLVKfdVWwsCrLrkHN6j44Wx-fdRfnBYbzfBig9OXPF7EJUaZBPRuQp3oHRLqMGmgLPRzngEY0XSNVSe86E2RiA_siBQVQgx83I-A4R_b7IJFsLGgytsmmL5dheav9irO5L-BkJdvSooRRZG_dz8wEpjlHL9OommMLXCJTSmUWza_w2C2QyEz0t3yExzFuxcZcwjB5veuYm7JVMCqrI0lnSKxtxbUl1m6wvulBPHtq3jZ7ADvmUMCJn-mJm7x8jLU36KZbek1xoTTbKFyfTqOfjchXRWEmceWheYb5exZgGGxrj5leql6kZpw6WWBFK3XlC0gEd6NUcetnRhboOS_Fcoko0TuY6mitO-9AsTus0VAXMe9z5zNwABjuf7z7PfpYlh9uLNkTGXTflOMxj_t7t4hvfRQ2LWlvJ5pCwzczgxat12jyonHKIreCv6mbBkJgY_9-8SWzjOzwPQwLVS3jzsPu1pWqmKK7zfTgqk2hTWnHqTIrdP1sUiJfM9lJXH16R5cgvGXUoiZqrvCoBANR0BizJIsklxie2TVwz-NwD3tz3STqPjftTdcGmtf7oQfxzMSXyjRTtqlkhVKs9HJInWm4w38yGWfxAV0XP9EmANByD6_wxUIVvoIadE743-nAxN70qlFzXSJRYouslWj6KPNdXfNOPYQgOQfQtOkNXsSdYkcPIiOkXatuiXnK3rfDTW9iPOhwBHsCvQijLBarivaF2L3YLTr1VaMrNM88T7Hmw9DdMd5M4jI2xUhaRdTqE0Q1eS-xlZe-0pwdklJZBMoEmbEu7nqigkhpSt0bI4QtYqDTIxJCSgqF9igBqpPoFxM3zP-qdSMkrhvBlZVy5QRToiG-TGxjQSbsW6TPPu-cpkh2RuQFXj2jnjXiuITN-4AdgOQDnAw77tnif9kCsbjvOHOYtPKrdBcZRMMswk_1n_2wIFw4r- -uVtFihgwNX9tKFHHyHPI6d_b3iQGwyCKqa_dmWnLzLBjy9buadGsn7_DXrrJHysTPDavClzJwCkpjlBOf7Tg6ItukDKnjIi1ffsZhyfsykom2fi5Hmex1SX_0000]--></g></svg>