<svg xmlns="http://www.w3.org/2000/svg" xmlns:xlink="http://www.w3.org/1999/xlink" contentStyleType="text/css" data-diagram-type="CLASS" height="599px" preserveAspectRatio="none" style="width:1304px;height:599px;background:#FFFFFF;" version="1.1" viewBox="0 0 1304 599" width="1304px" zoomAndPan="magnify"><title>&#1050;&#1086;&#1085;&#1094;&#1077;&#1087;&#1090;&#1091;&#1072;&#1083;&#1100;&#1085;&#1072;&#1103; &#1076;&#1080;&#1072;&#1075;&#1088;&#1072;&#1084;&#1084;&#1072; &#1082;&#1083;&#1072;&#1089;&#1089;&#1086;&#1074; &#1089;&#1080;&#1089;&#1090;&#1077;&#1084;&#1099; "&#1055;&#1083;&#1072;&#1090;&#1092;&#1086;&#1088;&#1084;&#1072; &#1076;&#1083;&#1103; &#1088;&#1072;&#1079;&#1084;&#1077;&#1097;&#1077;&#1085;&#1080;&#1103; &#1086;&#1085;&#1083;&#1072;&#1081;&#1085; &#1080;&#1085;&#1076;&#1080; &#1080;&#1075;&#1088;"</title><defs/><g><g class="title" data-source-line="1"><text fill="#000000" font-family="sans-serif" font-size="14" font-weight="bold" lengthAdjust="spacing" textLength="767.4229" x="261.723" y="22.9951">&#1050;&#1086;&#1085;&#1094;&#1077;&#1087;&#1090;&#1091;&#1072;&#1083;&#1100;&#1085;&#1072;&#1103; &#1076;&#1080;&#1072;&#1075;&#1088;&#1072;&#1084;&#1084;&#1072; &#1082;&#1083;&#1072;&#1089;&#1089;&#1086;&#1074; &#1089;&#1080;&#1089;&#1090;&#1077;&#1084;&#1099; "&#1055;&#1083;&#1072;&#1090;&#1092;&#1086;&#1088;&#1084;&#1072; &#1076;&#1083;&#1103; &#1088;&#1072;&#1079;&#1084;&#1077;&#1097;&#1077;&#1085;&#1080;&#1103; &#1086;&#1085;&#1083;&#1072;&#1081;&#1085; &#1080;&#1085;&#1076;&#1080; &#1080;&#1075;&#1088;"</text></g><!--class ????????????--><g class="entity" data-entity="............" data-source-line="3" data-uid="ent0002" id="entity_............"><rect fill="#F1F1F1" height="48" rx="2.5" ry="2.5" style="stroke:#181818;stroke-width:0.5;" width="135.0996" x="427.01" y="44.2969"/><ellipse cx="442.01" cy="60.2969" fill="#ADD1B2" rx="11" ry="11" style="stroke:#181818;stroke-width:1;"/><path d="M444.9788,65.9375 Q444.4006,66.2344 443.76,66.375 Q443.1194,66.5313 442.4163,66.5313 Q439.9163,66.5313 438.5881,64.8906 Q437.2756,63.2344 437.2756,60.1094 Q437.2756,56.9844 438.5881,55.3281 Q439.9163,53.6719 442.4163,53.6719 Q443.1194,53.6719 443.76,53.8281 Q444.4163,53.9844 444.9788,54.2813 L444.9788,57 Q444.3538,56.4219 443.76,56.1563 Q443.1663,55.875 442.5413,55.875 Q441.1975,55.875 440.51,56.9531 Q439.8225,58.0156 439.8225,60.1094 Q439.8225,62.2031 440.51,63.2813 Q441.1975,64.3438 442.5413,64.3438 Q443.1663,64.3438 443.76,64.0781 Q444.3538,63.7969 444.9788,63.2188 L444.9788,65.9375 Z " fill="#000000"/><text fill="#000000" font-family="sans-serif" font-size="14" lengthAdjust="spacing" textLength="103.0996" x="456.01" y="65.1436">&#1055;&#1086;&#1083;&#1100;&#1079;&#1086;&#1074;&#1072;&#1090;&#1077;&#1083;&#1100;</text><line style="stroke:#181818;stroke-width:0.5;" x1="428.01" x2="561.1096" y1="76.2969" y2="76.2969"/><line style="stroke:#181818;stroke-width:0.5;" x1="428.01" x2="561.1096" y1="84.2969" y2="84.2969"/></g><!--class ???????????--><g class="entity" data-entity="..........." data-source-line="4" data-uid="ent0003" id="entity_..........."><rect fill="#F1F1F1" height="48" rx="2.5" ry="2.5" style="stroke:#181818;stroke-width:0.5;" width="125.1123" x="7" y="169.2969"/><ellipse cx="22" cy="185.2969" fill="#ADD1B2" rx="11" ry="11" style="stroke:#181818;stroke-width:1;"/><path d="M24.9688,190.9375 Q24.3906,191.2344 23.75,191.375 Q23.1094,191.5313 22.4063,191.5313 Q19.9063,191.5313 18.5781,189.8906 Q17.2656,188.2344 17.2656,185.1094 Q17.2656,181.9844 18.5781,180.3281 Q19.9063,178.6719 22.4063,178.6719 Q23.1094,178.6719 23.75,178.8281 Q24.4063,178.9844 24.9688,179.2813 L24.9688,182 Q24.3438,181.4219 23.75,181.1563 Q23.1563,180.875 22.5313,180.875 Q21.1875,180.875 20.5,181.9531 Q19.8125,183.0156 19.8125,185.1094 Q19.8125,187.2031 20.5,188.2813 Q21.1875,189.3438 22.5313,189.3438 Q23.1563,189.3438 23.75,189.0781 Q24.3438,188.7969 24.9688,188.2188 L24.9688,190.9375 Z " fill="#000000"/><text fill="#000000" font-family="sans-serif" font-size="14" lengthAdjust="spacing" textLength="93.1123" x="36" y="190.1436">&#1056;&#1072;&#1079;&#1088;&#1072;&#1073;&#1086;&#1090;&#1095;&#1080;&#1082;</text><line style="stroke:#181818;stroke-width:0.5;" x1="8" x2="131.1123" y1="201.2969" y2="201.2969"/><line style="stroke:#181818;stroke-width:0.5;" x1="8" x2="131.1123" y1="209.2969" y2="209.2969"/></g><!--class ?????????--><g class="entity" data-entity="........." data-source-line="5" data-uid="ent0004" id="entity_........."><rect fill="#F1F1F1" height="48" rx="2.5" ry="2.5" style="stroke:#181818;stroke-width:0.5;" width="114.0107" x="599.55" y="169.2969"/><ellipse cx="614.55" cy="185.2969" fill="#ADD1B2" rx="11" ry="11" style="stroke:#181818;stroke-width:1;"/><path d="M617.5188,190.9375 Q616.9406,191.2344 616.3,191.375 Q615.6594,191.5313 614.9563,191.5313 Q612.4563,191.5313 611.1281,189.8906 Q609.8156,188.2344 609.8156,185.1094 Q609.8156,181.9844 611.1281,180.3281 Q612.4563,178.6719 614.9563,178.6719 Q615.6594,178.6719 616.3,178.8281 Q616.9563,178.9844 617.5188,179.2813 L617.5188,182 Q616.8938,181.4219 616.3,181.1563 Q615.7063,180.875 615.0813,180.875 Q613.7375,180.875 613.05,181.9531 Q612.3625,183.0156 612.3625,185.1094 Q612.3625,187.2031 613.05,188.2813 Q613.7375,189.3438 615.0813,189.3438 Q615.7063,189.3438 616.3,189.0781 Q616.8938,188.7969 617.5188,188.2188 L617.5188,190.9375 Z " fill="#000000"/><text fill="#000000" font-family="sans-serif" font-size="14" lengthAdjust="spacing" textLength="82.0107" x="628.55" y="190.1436">&#1052;&#1086;&#1076;&#1077;&#1088;&#1072;&#1090;&#1086;&#1088;</text><line style="stroke:#181818;stroke-width:0.5;" x1="600.55" x2="712.5607" y1="201.2969" y2="201.2969"/><line style="stroke:#181818;stroke-width:0.5;" x1="600.55" x2="712.5607" y1="209.2969" y2="209.2969"/></g><!--class ?????????????--><g class="entity" data-entity="............." data-source-line="6" data-uid="ent0005" id="entity_............."><rect fill="#F1F1F1" height="48" rx="2.5" ry="2.5" style="stroke:#181818;stroke-width:0.5;" width="148.0947" x="582.51" y="294.2969"/><ellipse cx="597.51" cy="310.2969" fill="#ADD1B2" rx="11" ry="11" style="stroke:#181818;stroke-width:1;"/><path d="M600.4788,315.9375 Q599.9006,316.2344 599.26,316.375 Q598.6194,316.5313 597.9163,316.5313 Q595.4163,316.5313 594.0881,314.8906 Q592.7756,313.2344 592.7756,310.1094 Q592.7756,306.9844 594.0881,305.3281 Q595.4163,303.6719 597.9163,303.6719 Q598.6194,303.6719 599.26,303.8281 Q599.9163,303.9844 600.4788,304.2813 L600.4788,307 Q599.8538,306.4219 599.26,306.1563 Q598.6663,305.875 598.0413,305.875 Q596.6975,305.875 596.01,306.9531 Q595.3225,308.0156 595.3225,310.1094 Q595.3225,312.2031 596.01,313.2813 Q596.6975,314.3438 598.0413,314.3438 Q598.6663,314.3438 599.26,314.0781 Q599.8538,313.7969 600.4788,313.2188 L600.4788,315.9375 Z " fill="#000000"/><text fill="#000000" font-family="sans-serif" font-size="14" lengthAdjust="spacing" textLength="116.0947" x="611.51" y="315.1436">&#1040;&#1076;&#1084;&#1080;&#1085;&#1080;&#1089;&#1090;&#1088;&#1072;&#1090;&#1086;&#1088;</text><line style="stroke:#181818;stroke-width:0.5;" x1="583.51" x2="729.6047" y1="326.2969" y2="326.2969"/><line style="stroke:#181818;stroke-width:0.5;" x1="583.51" x2="729.6047" y1="334.2969" y2="334.2969"/></g><!--class ????--><g class="entity" data-entity="...." data-source-line="7" data-uid="ent0006" id="entity_...."><rect fill="#F1F1F1" height="48" rx="2.5" ry="2.5" style="stroke:#181818;stroke-width:0.5;" width="67.2939" x="156.91" y="294.2969"/><ellipse cx="171.91" cy="310.2969" fill="#ADD1B2" rx="11" ry="11" style="stroke:#181818;stroke-width:1;"/><path d="M174.8788,315.9375 Q174.3006,316.2344 173.66,316.375 Q173.0194,316.5313 172.3163,316.5313 Q169.8163,316.5313 168.4881,314.8906 Q167.1756,313.2344 167.1756,310.1094 Q167.1756,306.9844 168.4881,305.3281 Q169.8163,303.6719 172.3163,303.6719 Q173.0194,303.6719 173.66,303.8281 Q174.3163,303.9844 174.8788,304.2813 L174.8788,307 Q174.2538,306.4219 173.66,306.1563 Q173.0663,305.875 172.4413,305.875 Q171.0975,305.875 170.41,306.9531 Q169.7225,308.0156 169.7225,310.1094 Q169.7225,312.2031 170.41,313.2813 Q171.0975,314.3438 172.4413,314.3438 Q173.0663,314.3438 173.66,314.0781 Q174.2538,313.7969 174.8788,313.2188 L174.8788,315.9375 Z " fill="#000000"/><text fill="#000000" font-family="sans-serif" font-size="14" lengthAdjust="spacing" textLength="35.2939" x="185.91" y="315.1436">&#1048;&#1075;&#1088;&#1072;</text><line style="stroke:#181818;stroke-width:0.5;" x1="157.91" x2="223.2039" y1="326.2969" y2="326.2969"/><line style="stroke:#181818;stroke-width:0.5;" x1="157.91" x2="223.2039" y1="334.2969" y2="334.2969"/></g><!--class ??????????--><g class="entity" data-entity=".........." data-source-line="8" data-uid="ent0007" id="entity_.........."><rect fill="#F1F1F1" height="48" rx="2.5" ry="2.5" style="stroke:#181818;stroke-width:0.5;" width="122.0908" x="553.51" y="544.2969"/><ellipse cx="568.51" cy="560.2969" fill="#ADD1B2" rx="11" ry="11" style="stroke:#181818;stroke-width:1;"/><path d="M571.4788,565.9375 Q570.9006,566.2344 570.26,566.375 Q569.6194,566.5313 568.9163,566.5313 Q566.4163,566.5313 565.0881,564.8906 Q563.7756,563.2344 563.7756,560.1094 Q563.7756,556.9844 565.0881,555.3281 Q566.4163,553.6719 568.9163,553.6719 Q569.6194,553.6719 570.26,553.8281 Q570.9163,553.9844 571.4788,554.2813 L571.4788,557 Q570.8538,556.4219 570.26,556.1563 Q569.6663,555.875 569.0413,555.875 Q567.6975,555.875 567.01,556.9531 Q566.3225,558.0156 566.3225,560.1094 Q566.3225,562.2031 567.01,563.2813 Q567.6975,564.3438 569.0413,564.3438 Q569.6663,564.3438 570.26,564.0781 Q570.8538,563.7969 571.4788,563.2188 L571.4788,565.9375 Z " fill="#000000"/><text fill="#000000" font-family="sans-serif" font-size="14" lengthAdjust="spacing" textLength="90.0908" x="582.51" y="565.1436">&#1042;&#1077;&#1088;&#1089;&#1080;&#1103;&#1048;&#1075;&#1088;&#1099;</text><line style="stroke:#181818;stroke-width:0.5;" x1="554.51" x2="674.6008" y1="576.2969" y2="576.2969"/><line style="stroke:#181818;stroke-width:0.5;" x1="554.51" x2="674.6008" y1="584.2969" y2="584.2969"/></g><!--class ?????--><g class="entity" data-entity="....." data-source-line="9" data-uid="ent0008" id="entity_....."><rect fill="#F1F1F1" height="48" rx="2.5" ry="2.5" style="stroke:#181818;stroke-width:0.5;" width="77.9238" x="292.59" y="419.2969"/><ellipse cx="307.59" cy="435.2969" fill="#ADD1B2" rx="11" ry="11" style="stroke:#181818;stroke-width:1;"/><path d="M310.5588,440.9375 Q309.9806,441.2344 309.34,441.375 Q308.6994,441.5313 307.9963,441.5313 Q305.4963,441.5313 304.1681,439.8906 Q302.8556,438.2344 302.8556,435.1094 Q302.8556,431.9844 304.1681,430.3281 Q305.4963,428.6719 307.9963,428.6719 Q308.6994,428.6719 309.34,428.8281 Q309.9963,428.9844 310.5588,429.2813 L310.5588,432 Q309.9338,431.4219 309.34,431.1563 Q308.7463,430.875 308.1213,430.875 Q306.7775,430.875 306.09,431.9531 Q305.4025,433.0156 305.4025,435.1094 Q305.4025,437.2031 306.09,438.2813 Q306.7775,439.3438 308.1213,439.3438 Q308.7463,439.3438 309.34,439.0781 Q309.9338,438.7969 310.5588,438.2188 L310.5588,440.9375 Z " fill="#000000"/><text fill="#000000" font-family="sans-serif" font-size="14" lengthAdjust="spacing" textLength="45.9238" x="321.59" y="440.1436">&#1054;&#1090;&#1079;&#1099;&#1074;</text><line style="stroke:#181818;stroke-width:0.5;" x1="293.59" x2="369.5138" y1="451.2969" y2="451.2969"/><line style="stroke:#181818;stroke-width:0.5;" x1="293.59" x2="369.5138" y1="459.2969" y2="459.2969"/></g><!--class ?????????--><g class="entity" data-entity="........." data-source-line="10" data-uid="ent0009" id="entity_........."><rect fill="#F1F1F1" height="48" rx="2.5" ry="2.5" style="stroke:#181818;stroke-width:0.5;" width="112.5205" x="167.3" y="169.2969"/><ellipse cx="182.3" cy="185.2969" fill="#ADD1B2" rx="11" ry="11" style="stroke:#181818;stroke-width:1;"/><path d="M185.2688,190.9375 Q184.6906,191.2344 184.05,191.375 Q183.4094,191.5313 182.7063,191.5313 Q180.2063,191.5313 178.8781,189.8906 Q177.5656,188.2344 177.5656,185.1094 Q177.5656,181.9844 178.8781,180.3281 Q180.2063,178.6719 182.7063,178.6719 Q183.4094,178.6719 184.05,178.8281 Q184.7063,178.9844 185.2688,179.2813 L185.2688,182 Q184.6438,181.4219 184.05,181.1563 Q183.4563,180.875 182.8313,180.875 Q181.4875,180.875 180.8,181.9531 Q180.1125,183.0156 180.1125,185.1094 Q180.1125,187.2031 180.8,188.2813 Q181.4875,189.3438 182.8313,189.3438 Q183.4563,189.3438 184.05,189.0781 Q184.6438,188.7969 185.2688,188.2188 L185.2688,190.9375 Z " fill="#000000"/><text fill="#000000" font-family="sans-serif" font-size="14" lengthAdjust="spacing" textLength="80.5205" x="196.3" y="190.1436">&#1050;&#1086;&#1083;&#1083;&#1077;&#1082;&#1094;&#1080;&#1103;</text><line style="stroke:#181818;stroke-width:0.5;" x1="168.3" x2="278.8205" y1="201.2969" y2="201.2969"/><line style="stroke:#181818;stroke-width:0.5;" x1="168.3" x2="278.8205" y1="209.2969" y2="209.2969"/></g><!--class ?????????--><g class="entity" data-entity="........." data-source-line="11" data-uid="ent0010" id="entity_........."><rect fill="#F1F1F1" height="48" rx="2.5" ry="2.5" style="stroke:#181818;stroke-width:0.5;" width="115.4531" x="747.83" y="419.2969"/><ellipse cx="762.83" cy="435.2969" fill="#ADD1B2" rx="11" ry="11" style="stroke:#181818;stroke-width:1;"/><path d="M765.7988,440.9375 Q765.2206,441.2344 764.58,441.375 Q763.9394,441.5313 763.2363,441.5313 Q760.7363,441.5313 759.4081,439.8906 Q758.0956,438.2344 758.0956,435.1094 Q758.0956,431.9844 759.4081,430.3281 Q760.7363,428.6719 763.2363,428.6719 Q763.9394,428.6719 764.58,428.8281 Q765.2363,428.9844 765.7988,429.2813 L765.7988,432 Q765.1738,431.4219 764.58,431.1563 Q763.9863,430.875 763.3613,430.875 Q762.0175,430.875 761.33,431.9531 Q760.6425,433.0156 760.6425,435.1094 Q760.6425,437.2031 761.33,438.2813 Q762.0175,439.3438 763.3613,439.3438 Q763.9863,439.3438 764.58,439.0781 Q765.1738,438.7969 765.7988,438.2188 L765.7988,440.9375 Z " fill="#000000"/><text fill="#000000" font-family="sans-serif" font-size="14" lengthAdjust="spacing" textLength="83.4531" x="776.83" y="440.1436">&#1052;&#1086;&#1076;&#1077;&#1088;&#1072;&#1094;&#1080;&#1103;</text><line style="stroke:#181818;stroke-width:0.5;" x1="748.83" x2="862.2831" y1="451.2969" y2="451.2969"/><line style="stroke:#181818;stroke-width:0.5;" x1="748.83" x2="862.2831" y1="459.2969" y2="459.2969"/></g><!--class ???????????--><g class="entity" data-entity="..........." data-source-line="12" data-uid="ent0011" id="entity_..........."><rect fill="#F1F1F1" height="48" rx="2.5" ry="2.5" style="stroke:#181818;stroke-width:0.5;" width="130.6289" x="1167.24" y="169.2969"/><ellipse cx="1182.24" cy="185.2969" fill="#ADD1B2" rx="11" ry="11" style="stroke:#181818;stroke-width:1;"/><path d="M1185.2088,190.9375 Q1184.6306,191.2344 1183.99,191.375 Q1183.3494,191.5313 1182.6463,191.5313 Q1180.1463,191.5313 1178.8181,189.8906 Q1177.5056,188.2344 1177.5056,185.1094 Q1177.5056,181.9844 1178.8181,180.3281 Q1180.1463,178.6719 1182.6463,178.6719 Q1183.3494,178.6719 1183.99,178.8281 Q1184.6463,178.9844 1185.2088,179.2813 L1185.2088,182 Q1184.5838,181.4219 1183.99,181.1563 Q1183.3963,180.875 1182.7713,180.875 Q1181.4275,180.875 1180.74,181.9531 Q1180.0525,183.0156 1180.0525,185.1094 Q1180.0525,187.2031 1180.74,188.2813 Q1181.4275,189.3438 1182.7713,189.3438 Q1183.3963,189.3438 1183.99,189.0781 Q1184.5838,188.7969 1185.2088,188.2188 L1185.2088,190.9375 Z " fill="#000000"/><text fill="#000000" font-family="sans-serif" font-size="14" lengthAdjust="spacing" textLength="98.6289" x="1196.24" y="190.1436">&#1059;&#1074;&#1077;&#1076;&#1086;&#1084;&#1083;&#1077;&#1085;&#1080;&#1077;</text><line style="stroke:#181818;stroke-width:0.5;" x1="1168.24" x2="1296.8689" y1="201.2969" y2="201.2969"/><line style="stroke:#181818;stroke-width:0.5;" x1="1168.24" x2="1296.8689" y1="209.2969" y2="209.2969"/></g><!--class ??????????--><g class="entity" data-entity=".........." data-source-line="13" data-uid="ent0012" id="entity_.........."><rect fill="#F1F1F1" height="48" rx="2.5" ry="2.5" style="stroke:#181818;stroke-width:0.5;" width="119.4111" x="765.85" y="294.2969"/><ellipse cx="780.85" cy="310.2969" fill="#ADD1B2" rx="11" ry="11" style="stroke:#181818;stroke-width:1;"/><path d="M783.8188,315.9375 Q783.2406,316.2344 782.6,316.375 Q781.9594,316.5313 781.2563,316.5313 Q778.7563,316.5313 777.4281,314.8906 Q776.1156,313.2344 776.1156,310.1094 Q776.1156,306.9844 777.4281,305.3281 Q778.7563,303.6719 781.2563,303.6719 Q781.9594,303.6719 782.6,303.8281 Q783.2563,303.9844 783.8188,304.2813 L783.8188,307 Q783.1938,306.4219 782.6,306.1563 Q782.0063,305.875 781.3813,305.875 Q780.0375,305.875 779.35,306.9531 Q778.6625,308.0156 778.6625,310.1094 Q778.6625,312.2031 779.35,313.2813 Q780.0375,314.3438 781.3813,314.3438 Q782.0063,314.3438 782.6,314.0781 Q783.1938,313.7969 783.8188,313.2188 L783.8188,315.9375 Z " fill="#000000"/><text fill="#000000" font-family="sans-serif" font-size="14" lengthAdjust="spacing" textLength="87.4111" x="794.85" y="315.1436">&#1041;&#1083;&#1086;&#1082;&#1080;&#1088;&#1086;&#1074;&#1082;&#1072;</text><line style="stroke:#181818;stroke-width:0.5;" x1="766.85" x2="884.2611" y1="326.2969" y2="326.2969"/><line style="stroke:#181818;stroke-width:0.5;" x1="766.85" x2="884.2611" y1="334.2969" y2="334.2969"/></g><!--class ??????????????--><g class="entity" data-entity=".............." data-source-line="14" data-uid="ent0013" id="entity_.............."><rect fill="#F1F1F1" height="48" rx="2.5" ry="2.5" style="stroke:#181818;stroke-width:0.5;" width="162.416" x="385.35" y="294.2969"/><ellipse cx="400.35" cy="310.2969" fill="#ADD1B2" rx="11" ry="11" style="stroke:#181818;stroke-width:1;"/><path d="M403.3188,315.9375 Q402.7406,316.2344 402.1,316.375 Q401.4594,316.5313 400.7563,316.5313 Q398.2563,316.5313 396.9281,314.8906 Q395.6156,313.2344 395.6156,310.1094 Q395.6156,306.9844 396.9281,305.3281 Q398.2563,303.6719 400.7563,303.6719 Q401.4594,303.6719 402.1,303.8281 Q402.7563,303.9844 403.3188,304.2813 L403.3188,307 Q402.6938,306.4219 402.1,306.1563 Q401.5063,305.875 400.8813,305.875 Q399.5375,305.875 398.85,306.9531 Q398.1625,308.0156 398.1625,310.1094 Q398.1625,312.2031 398.85,313.2813 Q399.5375,314.3438 400.8813,314.3438 Q401.5063,314.3438 402.1,314.0781 Q402.6938,313.7969 403.3188,313.2188 L403.3188,315.9375 Z " fill="#000000"/><text fill="#000000" font-family="sans-serif" font-size="14" lengthAdjust="spacing" textLength="130.416" x="414.35" y="315.1436">&#1055;&#1088;&#1077;&#1076;&#1091;&#1087;&#1088;&#1077;&#1078;&#1076;&#1077;&#1085;&#1080;&#1077;</text><line style="stroke:#181818;stroke-width:0.5;" x1="386.35" x2="546.766" y1="326.2969" y2="326.2969"/><line style="stroke:#181818;stroke-width:0.5;" x1="386.35" x2="546.766" y1="334.2969" y2="334.2969"/></g><!--class ????????????????????--><g class="entity" data-entity="...................." data-source-line="15" data-uid="ent0014" id="entity_...................."><rect fill="#F1F1F1" height="48" rx="2.5" ry="2.5" style="stroke:#181818;stroke-width:0.5;" width="204.0605" x="930.53" y="544.2969"/><ellipse cx="945.53" cy="560.2969" fill="#ADD1B2" rx="11" ry="11" style="stroke:#181818;stroke-width:1;"/><path d="M948.4988,565.9375 Q947.9206,566.2344 947.28,566.375 Q946.6394,566.5313 945.9363,566.5313 Q943.4363,566.5313 942.1081,564.8906 Q940.7956,563.2344 940.7956,560.1094 Q940.7956,556.9844 942.1081,555.3281 Q943.4363,553.6719 945.9363,553.6719 Q946.6394,553.6719 947.28,553.8281 Q947.9363,553.9844 948.4988,554.2813 L948.4988,557 Q947.8738,556.4219 947.28,556.1563 Q946.6863,555.875 946.0613,555.875 Q944.7175,555.875 944.03,556.9531 Q943.3425,558.0156 943.3425,560.1094 Q943.3425,562.2031 944.03,563.2813 Q944.7175,564.3438 946.0613,564.3438 Q946.6863,564.3438 947.28,564.0781 Q947.8738,563.7969 948.4988,563.2188 L948.4988,565.9375 Z " fill="#000000"/><text fill="#000000" font-family="sans-serif" font-size="14" lengthAdjust="spacing" textLength="172.0605" x="959.53" y="565.1436">&#1047;&#1072;&#1103;&#1074;&#1082;&#1072;&#1053;&#1072;&#1056;&#1072;&#1079;&#1088;&#1072;&#1073;&#1086;&#1090;&#1095;&#1080;&#1082;&#1072;</text><line style="stroke:#181818;stroke-width:0.5;" x1="931.53" x2="1133.5905" y1="576.2969" y2="576.2969"/><line style="stroke:#181818;stroke-width:0.5;" x1="931.53" x2="1133.5905" y1="584.2969" y2="584.2969"/></g><!--reverse link ???????????? to ???????????--><g class="link" data-entity-1="............" data-entity-2="..........." data-source-line="17" data-uid="lnk15" id="link_............_..........."><path codeLine="17" d="M408.9067,80.0225 C352.2967,88.0125 287.81,99.7769 218.56,122.2969 C181.32,134.4069 141.27,153.6069 112.07,168.8369" fill="none" id="&#1055;&#1086;&#1083;&#1100;&#1079;&#1086;&#1074;&#1072;&#1090;&#1077;&#1083;&#1100;-backto-&#1056;&#1072;&#1079;&#1088;&#1072;&#1073;&#1086;&#1090;&#1095;&#1080;&#1082;" style="stroke:#181818;stroke-width:1;"/><polygon fill="none" points="426.73,77.5069,408.0681,74.0814,409.7452,85.9636,426.73,77.5069" style="stroke:#181818;stroke-width:1;"/></g><!--reverse link ???????????? to ?????????--><g class="link" data-entity-1="............" data-entity-2="........." data-source-line="18" data-uid="lnk16" id="link_............_........."><path codeLine="18" d="M539.7441,103.6042 C568.5641,125.4942 597.03,147.0969 625.82,168.9569" fill="none" id="&#1055;&#1086;&#1083;&#1100;&#1079;&#1086;&#1074;&#1072;&#1090;&#1077;&#1083;&#1100;-backto-&#1052;&#1086;&#1076;&#1077;&#1088;&#1072;&#1090;&#1086;&#1088;" style="stroke:#181818;stroke-width:1;"/><polygon fill="none" points="525.41,92.7169,536.115,108.3822,543.3732,98.8262,525.41,92.7169" style="stroke:#181818;stroke-width:1;"/></g><!--reverse link ????????? to ?????????????--><g class="link" data-entity-1="........." data-entity-2="............." data-source-line="19" data-uid="lnk17" id="link_........._............."><path codeLine="19" d="M656.56,235.7169 C656.56,257.6069 656.56,272.0969 656.56,293.9569" fill="none" id="&#1052;&#1086;&#1076;&#1077;&#1088;&#1072;&#1090;&#1086;&#1088;-backto-&#1040;&#1076;&#1084;&#1080;&#1085;&#1080;&#1089;&#1090;&#1088;&#1072;&#1090;&#1086;&#1088;" style="stroke:#181818;stroke-width:1;"/><polygon fill="none" points="656.56,217.7169,650.56,235.7169,662.56,235.7169,656.56,217.7169" style="stroke:#181818;stroke-width:1;"/></g><!--link ??????????? to ????--><g class="link" data-entity-1="..........." data-entity-2="...." data-source-line="21" data-uid="lnk18" id="link_..........._...."><path codeLine="21" d="M79.78,217.4969 C86.96,232.0469 97.59,250.5869 110.56,264.2969 C123.72,278.2169 141.21,290.3269 156.47,299.4369" fill="none" id="&#1056;&#1072;&#1079;&#1088;&#1072;&#1073;&#1086;&#1090;&#1095;&#1080;&#1082;-&#1048;&#1075;&#1088;&#1072;" style="stroke:#181818;stroke-width:1;"/><polygon fill="#000000" points="118.9767,259.5138,114.9416,250.9017,110.6501,254.9182,118.9767,259.5138" style="stroke:#000000;stroke-width:1;"/><text fill="#000000" font-family="sans-serif" font-size="13" lengthAdjust="spacing" textLength="72.084" x="124.56" y="260.3638">&#1087;&#1091;&#1073;&#1083;&#1080;&#1082;&#1091;&#1077;&#1090;</text><text fill="#000000" font-family="sans-serif" font-size="13" lengthAdjust="spacing" textLength="41.0439" x="36.2805" y="237.3068">&#1084;&#1085;&#1086;&#1075;&#1086;</text><text fill="#000000" font-family="sans-serif" font-size="13" lengthAdjust="spacing" textLength="41.0439" x="107.7968" y="292.8062">&#1084;&#1085;&#1086;&#1075;&#1086;</text></g><!--link ???? to ??????????--><g class="link" data-entity-1="...." data-entity-2=".........." data-source-line="22" data-uid="lnk19" id="link_...._.........."><path codeLine="22" d="M182.88,342.7469 C174.04,374.6469 164.1,431.8069 192.56,467.2969 C237.24,523.0269 447.53,551.0869 553.38,561.8669" fill="none" id="&#1048;&#1075;&#1088;&#1072;-&#1042;&#1077;&#1088;&#1089;&#1080;&#1103;&#1048;&#1075;&#1088;&#1099;" style="stroke:#181818;stroke-width:1;"/><polygon fill="#000000" points="201.8637,445.9085,195.5743,438.7745,192.5822,443.8338,201.8637,445.9085" style="stroke:#000000;stroke-width:1;"/><text fill="#000000" font-family="sans-serif" font-size="13" lengthAdjust="spacing" textLength="68.0723" x="206.56" y="447.8638">&#1089;&#1086;&#1076;&#1077;&#1088;&#1078;&#1080;&#1090;</text><text fill="#000000" font-family="sans-serif" font-size="13" lengthAdjust="spacing" textLength="8.271" x="172.211" y="362.2176">1</text><text fill="#000000" font-family="sans-serif" font-size="13" lengthAdjust="spacing" textLength="41.0439" x="504.3422" y="557.5691">&#1084;&#1085;&#1086;&#1075;&#1086;</text></g><!--link ???? to ?????--><g class="link" data-entity-1="...." data-entity-2="....." data-source-line="23" data-uid="lnk20" id="link_...._....."><path codeLine="23" d="M199.05,342.6769 C205.37,357.4869 215.21,376.2469 228.56,389.2969 C246.53,406.8769 271.51,419.9269 292.36,428.6769" fill="none" id="&#1048;&#1075;&#1088;&#1072;-&#1054;&#1090;&#1079;&#1099;&#1074;" style="stroke:#181818;stroke-width:1;"/><polygon fill="#000000" points="237.2366,384.2519,232.5773,375.9608,228.5938,380.2829,237.2366,384.2519" style="stroke:#000000;stroke-width:1;"/><text fill="#000000" font-family="sans-serif" font-size="13" lengthAdjust="spacing" textLength="63.6733" x="242.56" y="385.3638">&#1087;&#1086;&#1083;&#1091;&#1095;&#1072;&#1077;&#1090;</text><text fill="#000000" font-family="sans-serif" font-size="13" lengthAdjust="spacing" textLength="8.271" x="192.1782" y="362.5307">1</text><text fill="#000000" font-family="sans-serif" font-size="13" lengthAdjust="spacing" textLength="41.0439" x="243.7148" y="422.9182">&#1084;&#1085;&#1086;&#1075;&#1086;</text></g><!--link ???????????? to ?????--><g class="link" data-entity-1="............" data-entity-2="....." data-source-line="24" data-uid="lnk21" id="link_............_....."><path codeLine="24" d="M478.57,92.5169 C451.94,132.1869 398.38,216.2869 367.56,294.2969 C350.8,336.7169 340.28,389.1669 335.2,418.8769" fill="none" id="&#1055;&#1086;&#1083;&#1100;&#1079;&#1086;&#1074;&#1072;&#1090;&#1077;&#1083;&#1100;-&#1054;&#1090;&#1079;&#1099;&#1074;" style="stroke:#181818;stroke-width:1;"/><polygon fill="#000000" points="390.549,260.441,396.8777,253.3418,391.4962,250.9778,390.549,260.441" style="stroke:#000000;stroke-width:1;"/><text fill="#000000" font-family="sans-serif" font-size="13" lengthAdjust="spacing" textLength="44.4146" x="401.56" y="260.3638">&#1087;&#1080;&#1096;&#1077;&#1090;</text><text fill="#000000" font-family="sans-serif" font-size="13" lengthAdjust="spacing" textLength="8.271" x="465.7305" y="112.3317">1</text><text fill="#000000" font-family="sans-serif" font-size="13" lengthAdjust="spacing" textLength="41.0439" x="290.0977" y="408.1795">&#1084;&#1085;&#1086;&#1075;&#1086;</text></g><!--link ???????????? to ?????????--><g class="link" data-entity-1="............" data-entity-2="........." data-source-line="25" data-uid="lnk22" id="link_............_........."><path codeLine="25" d="M426.53,74.6269 C358.86,81.3769 261.5,95.5069 235.56,122.2969 C223.8,134.4269 221.19,153.6269 221.31,168.8469" fill="none" id="&#1055;&#1086;&#1083;&#1100;&#1079;&#1086;&#1074;&#1072;&#1090;&#1077;&#1083;&#1100;-&#1050;&#1086;&#1083;&#1083;&#1077;&#1082;&#1094;&#1080;&#1103;" style="stroke:#181818;stroke-width:1;"/><polygon fill="#000000" points="236.016,132.9495,245.4624,131.8464,243.0099,126.5046,236.016,132.9495" style="stroke:#000000;stroke-width:1;"/><text fill="#000000" font-family="sans-serif" font-size="13" lengthAdjust="spacing" textLength="56.4941" x="249.56" y="135.3638">&#1074;&#1083;&#1072;&#1076;&#1077;&#1077;&#1090;</text><text fill="#000000" font-family="sans-serif" font-size="13" lengthAdjust="spacing" textLength="8.271" x="410.6666" y="71.5731">1</text><text fill="#000000" font-family="sans-serif" font-size="13" lengthAdjust="spacing" textLength="41.0439" x="174.77" y="158.1421">&#1084;&#1085;&#1086;&#1075;&#1086;</text></g><!--link ???????????? to ???????????--><g class="link" data-entity-1="............" data-entity-2="..........." data-source-line="26" data-uid="lnk23" id="link_............_..........."><path codeLine="26" d="M562.45,70.0769 C706.15,72.4969 1036.4,82.3669 1140.56,122.2969 C1167.17,132.4969 1192.56,152.9169 1209.9,169.0869" fill="none" id="&#1055;&#1086;&#1083;&#1100;&#1079;&#1086;&#1074;&#1072;&#1090;&#1077;&#1083;&#1100;-&#1059;&#1074;&#1077;&#1076;&#1086;&#1084;&#1083;&#1077;&#1085;&#1080;&#1077;" style="stroke:#181818;stroke-width:1;"/><polygon fill="#000000" points="1180.5025,131.6191,1172.0057,127.3466,1171.1171,133.157,1180.5025,131.6191" style="stroke:#000000;stroke-width:1;"/><text fill="#000000" font-family="sans-serif" font-size="13" lengthAdjust="spacing" textLength="63.6733" x="1184.56" y="135.3638">&#1087;&#1086;&#1083;&#1091;&#1095;&#1072;&#1077;&#1090;</text><text fill="#000000" font-family="sans-serif" font-size="13" lengthAdjust="spacing" textLength="8.271" x="570.3278" y="66.5254">1</text><text fill="#000000" font-family="sans-serif" font-size="13" lengthAdjust="spacing" textLength="41.0439" x="1157.8473" y="158.0451">&#1084;&#1085;&#1086;&#1075;&#1086;</text></g><!--link ???????????? to ????????????????????--><g class="link" data-entity-1="............" data-entity-2="...................." data-source-line="27" data-uid="lnk24" id="link_............_...................."><path codeLine="27" d="M562.38,68.6069 C723.26,68.7869 1114.56,80.7069 1114.56,192.2969 C1114.56,192.2969 1114.56,192.2969 1114.56,444.2969 C1114.56,484.3369 1084.11,521.2469 1060.32,543.9869" fill="none" id="&#1055;&#1086;&#1083;&#1100;&#1079;&#1086;&#1074;&#1072;&#1090;&#1077;&#1083;&#1100;-&#1047;&#1072;&#1103;&#1074;&#1082;&#1072;&#1053;&#1072;&#1056;&#1072;&#1079;&#1088;&#1072;&#1073;&#1086;&#1090;&#1095;&#1080;&#1082;&#1072;" style="stroke:#181818;stroke-width:1;"/><polygon fill="#000000" points="1123.1765,321.8159,1118.6636,313.4443,1114.6048,317.6958,1123.1765,321.8159" style="stroke:#000000;stroke-width:1;"/><text fill="#000000" font-family="sans-serif" font-size="13" lengthAdjust="spacing" textLength="44.4146" x="1128.56" y="322.8638">&#1087;&#1080;&#1096;&#1077;&#1090;</text><text fill="#000000" font-family="sans-serif" font-size="13" lengthAdjust="spacing" textLength="8.271" x="570.2502" y="81.5353">1</text><text fill="#000000" font-family="sans-serif" font-size="13" lengthAdjust="spacing" textLength="41.0439" x="1021.0949" y="533.3163">&#1084;&#1085;&#1086;&#1075;&#1086;</text></g><!--link ????????? to ????--><g class="link" data-entity-1="........." data-entity-2="...." data-source-line="28" data-uid="lnk25" id="link_........._...."><path codeLine="28" d="M217.27,217.7169 C211.4,239.6069 202.68,272.0969 196.82,293.9569" fill="none" id="&#1050;&#1086;&#1083;&#1083;&#1077;&#1082;&#1094;&#1080;&#1103;-&#1048;&#1075;&#1088;&#1072;" style="stroke:#181818;stroke-width:1;"/><polygon fill="#000000" points="213.2646,260.6926,218.4466,252.7177,212.7694,251.1949,213.2646,260.6926" style="stroke:#000000;stroke-width:1;"/><text fill="#000000" font-family="sans-serif" font-size="13" lengthAdjust="spacing" textLength="65.9839" x="223.56" y="260.3638">&#1074;&#1082;&#1083;&#1102;&#1095;&#1072;&#1077;&#1090;</text><text fill="#000000" font-family="sans-serif" font-size="13" lengthAdjust="spacing" textLength="41.0439" x="170.0798" y="237.1806">&#1084;&#1085;&#1086;&#1075;&#1086;</text><text fill="#000000" font-family="sans-serif" font-size="13" lengthAdjust="spacing" textLength="41.0439" x="152.3551" y="283.279">&#1084;&#1085;&#1086;&#1075;&#1086;</text></g><!--link ????????? to ?????????--><g class="link" data-entity-1="........." data-entity-2="........." data-source-line="29" data-uid="lnk26" id="link_........._........."><path codeLine="29" d="M713.8,198.1469 C774.04,205.7369 865.2,228.1669 902.56,294.2969 C928.25,339.7669 877.04,390.1169 839.74,418.8069" fill="none" id="&#1052;&#1086;&#1076;&#1077;&#1088;&#1072;&#1090;&#1086;&#1088;-&#1052;&#1086;&#1076;&#1077;&#1088;&#1072;&#1094;&#1080;&#1103;" style="stroke:#181818;stroke-width:1;"/><polygon fill="#000000" points="917.0384,322.7058,915.1074,313.3933,910.0024,316.3069,917.0384,322.7058" style="stroke:#000000;stroke-width:1;"/><text fill="#000000" font-family="sans-serif" font-size="13" lengthAdjust="spacing" textLength="74.5786" x="923.56" y="322.8638">&#1074;&#1099;&#1087;&#1086;&#1083;&#1085;&#1103;&#1077;&#1090;</text><text fill="#000000" font-family="sans-serif" font-size="13" lengthAdjust="spacing" textLength="8.271" x="721.6643" y="194.8827">1</text><text fill="#000000" font-family="sans-serif" font-size="13" lengthAdjust="spacing" textLength="41.0439" x="802.0807" y="408.0924">&#1084;&#1085;&#1086;&#1075;&#1086;</text></g><!--link ????????? to ??????????????--><g class="link" data-entity-1="........." data-entity-2=".............." data-source-line="30" data-uid="lnk27" id="link_........._.............."><path codeLine="30" d="M620.37,217.7169 C586.56,239.6069 536.37,272.0969 502.61,293.9569" fill="none" id="&#1052;&#1086;&#1076;&#1077;&#1088;&#1072;&#1090;&#1086;&#1088;-&#1055;&#1088;&#1077;&#1076;&#1091;&#1087;&#1088;&#1077;&#1078;&#1076;&#1077;&#1085;&#1080;&#1077;" style="stroke:#181818;stroke-width:1;"/><polygon fill="#000000" points="574.3628,258.5806,583.5528,256.132,580.3584,251.1979,574.3628,258.5806" style="stroke:#000000;stroke-width:1;"/><text fill="#000000" font-family="sans-serif" font-size="13" lengthAdjust="spacing" textLength="50.4512" x="587.56" y="260.3638">&#1074;&#1099;&#1076;&#1072;&#1105;&#1090;</text><text fill="#000000" font-family="sans-serif" font-size="13" lengthAdjust="spacing" textLength="8.271" x="603.1085" y="237.1806">1</text><text fill="#000000" font-family="sans-serif" font-size="13" lengthAdjust="spacing" textLength="41.0439" x="465.4062" y="283.279">&#1084;&#1085;&#1086;&#1075;&#1086;</text></g><!--link ????????? to ??????????--><g class="link" data-entity-1="........." data-entity-2=".........." data-source-line="31" data-uid="lnk28" id="link_........._.........."><path codeLine="31" d="M688.74,217.7169 C718.81,239.6069 763.46,272.0969 793.49,293.9569" fill="none" id="&#1052;&#1086;&#1076;&#1077;&#1088;&#1072;&#1090;&#1086;&#1088;-&#1041;&#1083;&#1086;&#1082;&#1080;&#1088;&#1086;&#1074;&#1082;&#1072;" style="stroke:#181818;stroke-width:1;"/><polygon fill="#000000" points="760.6026,258.8056,755.0189,251.1067,751.56,255.8591,760.6026,258.8056" style="stroke:#000000;stroke-width:1;"/><text fill="#000000" font-family="sans-serif" font-size="13" lengthAdjust="spacing" textLength="50.4512" x="765.56" y="260.3638">&#1074;&#1099;&#1076;&#1072;&#1105;&#1090;</text><text fill="#000000" font-family="sans-serif" font-size="13" lengthAdjust="spacing" textLength="8.271" x="687.289" y="237.1806">1</text><text fill="#000000" font-family="sans-serif" font-size="13" lengthAdjust="spacing" textLength="41.0439" x="739.6825" y="283.279">&#1084;&#1085;&#1086;&#1075;&#1086;</text></g><!--link ????????? to ??????????--><g class="link" data-entity-1="........." data-entity-2=".........." data-source-line="32" data-uid="lnk29" id="link_........._.........."><path codeLine="32" d="M769.18,467.7169 C735.19,489.6069 684.74,522.0969 650.8,543.9569" fill="none" id="&#1052;&#1086;&#1076;&#1077;&#1088;&#1072;&#1094;&#1080;&#1103;-&#1042;&#1077;&#1088;&#1089;&#1080;&#1103;&#1048;&#1075;&#1088;&#1099;" style="stroke:#181818;stroke-width:1;"/><polygon fill="#000000" points="722.3563,508.5706,731.5521,506.1439,728.3695,501.2022,722.3563,508.5706" style="stroke:#000000;stroke-width:1;"/><text fill="#000000" font-family="sans-serif" font-size="13" lengthAdjust="spacing" textLength="72.0078" x="735.56" y="510.3638">&#1087;&#1088;&#1086;&#1074;&#1077;&#1088;&#1103;&#1077;&#1090;</text><text fill="#000000" font-family="sans-serif" font-size="13" lengthAdjust="spacing" textLength="8.271" x="751.8743" y="487.1806">1</text><text fill="#000000" font-family="sans-serif" font-size="13" lengthAdjust="spacing" textLength="8.271" x="650.6926" y="533.279">1</text></g><!--link ????????? to ????????????????????--><g class="link" data-entity-1="........." data-entity-2="...................." data-source-line="33" data-uid="lnk30" id="link_........._...................."><path codeLine="33" d="M848.79,467.7169 C889.18,489.6069 949.15,522.0969 989.49,543.9569" fill="none" id="&#1052;&#1086;&#1076;&#1077;&#1088;&#1072;&#1094;&#1080;&#1103;-&#1047;&#1072;&#1103;&#1074;&#1082;&#1072;&#1053;&#1072;&#1056;&#1072;&#1079;&#1088;&#1072;&#1073;&#1086;&#1090;&#1095;&#1080;&#1082;&#1072;" style="stroke:#181818;stroke-width:1;"/><polygon fill="#000000" points="942.9561,508.2454,936.4036,501.3522,933.6033,506.5201,942.9561,508.2454" style="stroke:#000000;stroke-width:1;"/><text fill="#000000" font-family="sans-serif" font-size="13" lengthAdjust="spacing" textLength="72.0078" x="947.56" y="510.3638">&#1087;&#1088;&#1086;&#1074;&#1077;&#1088;&#1103;&#1077;&#1090;</text><text fill="#000000" font-family="sans-serif" font-size="13" lengthAdjust="spacing" textLength="8.271" x="849.8941" y="487.1806">1</text><text fill="#000000" font-family="sans-serif" font-size="13" lengthAdjust="spacing" textLength="8.271" x="970.0496" y="533.279">1</text></g><!--link ????????????? to ?????????--><g class="link" data-entity-1="............." data-entity-2="........." data-source-line="34" data-uid="lnk31" id="link_............._........."><path codeLine="34" d="M684.93,342.7169 C711.45,364.6069 750.81,397.0969 777.29,418.9569" fill="none" id="&#1040;&#1076;&#1084;&#1080;&#1085;&#1080;&#1089;&#1090;&#1088;&#1072;&#1090;&#1086;&#1088;-&#1052;&#1086;&#1076;&#1077;&#1088;&#1072;&#1094;&#1080;&#1103;" style="stroke:#181818;stroke-width:1;"/><polygon fill="#000000" points="749.416,384.0463,744.3114,376.0217,740.5695,380.5547,749.416,384.0463" style="stroke:#000000;stroke-width:1;"/><text fill="#000000" font-family="sans-serif" font-size="13" lengthAdjust="spacing" textLength="105.0981" x="754.56" y="385.3638">&#1087;&#1088;&#1086;&#1089;&#1084;&#1072;&#1090;&#1088;&#1080;&#1074;&#1072;&#1077;&#1090;</text></g><!--SRC=[hLNDJi904BxtAJRSEN0rndSnneC9DpXwW6By2KR4YyQecFW2jRHG-yShpBwHtqnP57ShO4m3T6Vs-sRcczcbUz9j7ojwf98AVKunBRIl1nHGfg-fe42F54MKm33LFNpdU095AMNmzNKVk53X9y721ppNGzMWYRXzVKObK8A8m3XImZ679TPNs5q0Xm28pG3we48XLi4H-GKX6vvtr3xiT1GuIqbgpY6P7NYiZVkLYON-7K5zVG5yQfnFm4I8sHCSSZAEMvXp2Ia5s1iUghhDyev9fDnHvT93ute1SAw751e3QvhXYIc5ia2uibbplA6m6AuIEMMLF1GRvnYc4i8dmB42wLTM4vY0GzyMyZPZ-dNqFRUoGj4pFawvmEZLwQpsJvlDEfatW6pvRTDoQtr3F7TiJ5kEtILDgMmeKAojJV_Kde8s0m0p1k4jrhuwy5R-Hii1TdGRH3BqLUupk3RJh2P3iX2b1aW-C3dKYRSDMQ8l_qHZ3IVJXN8AUNR-GkcStlyeUSlPjGInQznwLZXOfc- -fsnFh3DPwt0B7HecAk2I7Ur8-ClXDjGH6COxaJekamraIm6NPAtQqo5PCYKxdRNQJBiqsCLUUscedxVFgYF2W-Hp-P_g0HoQLdy2]--></g></svg>